<?xml version="1.0" encoding="iso-8859-1"?>
<!-- Generator: Adobe Illustrator 19.0.0, SVG Export Plug-In . SVG Version: 6.00 Build 0)  -->
<svg version="1.1" id="Layer_1" xmlns="http://www.w3.org/2000/svg" xmlns:xlink="http://www.w3.org/1999/xlink" x="0px" y="0px"
	 viewBox="0 0 512 512" style="enable-background:new 0 0 512 512;" xml:space="preserve">
<g>
	<path style="fill:#F6B245;" d="M383.006,228c2.413-18.529,3.757-39.026,3.757-60.59c0-82.814-19.772-149.949-44.163-149.949
		c-24.391,0-44.163,67.135-44.163,149.949c0,21.563,1.344,42.061,3.757,60.59H383.006z"/>
	<g>
		<g>
			<path style="fill:#F39600;" d="M336.67,93.726c-1.92,0-3.839-0.732-5.304-2.197l-6.643-6.645
				c-2.929-2.929-2.929-7.678,0.001-10.606c2.928-2.929,7.677-2.928,10.606,0.001l6.644,6.645c2.929,2.929,2.929,7.678-0.001,10.606
				C340.509,92.993,338.589,93.726,336.67,93.726z"/>
		</g>
		<g>
			<path style="fill:#F39600;" d="M348.529,118.872c-1.919,0-3.839-0.732-5.304-2.196c-2.929-2.93-2.929-7.678,0-10.607l6.644-6.644
				c2.93-2.928,7.678-2.928,10.607,0c2.929,2.93,2.929,7.678,0,10.607l-6.644,6.644C352.368,118.14,350.448,118.872,348.529,118.872
				z"/>
		</g>
		<g>
			<path style="fill:#F39600;" d="M347.317,70.272c-1.919,0-3.837-0.731-5.302-2.195c-2.93-2.928-2.932-7.677-0.003-10.606
				l2.906-2.908c2.926-2.93,7.675-2.933,10.606-0.003c2.93,2.928,2.932,7.677,0.003,10.606l-2.906,2.908
				C351.158,69.539,349.237,70.272,347.317,70.272z"/>
		</g>
		<g>
			<path style="fill:#F39600;" d="M336.67,143.056c-1.92,0-3.839-0.732-5.304-2.197l-6.643-6.645
				c-2.929-2.929-2.929-7.678,0.001-10.606c2.928-2.929,7.677-2.928,10.606,0.001l6.644,6.645c2.929,2.929,2.929,7.678-0.001,10.607
				C340.509,142.323,338.589,143.056,336.67,143.056z"/>
		</g>
		<g>
			<path style="fill:#F39600;" d="M348.529,168.202c-1.919,0-3.839-0.732-5.304-2.196c-2.929-2.93-2.929-7.678,0-10.607l6.644-6.644
				c2.93-2.928,7.678-2.928,10.607,0c2.929,2.93,2.929,7.678,0,10.607l-6.644,6.644C352.368,167.47,350.448,168.202,348.529,168.202
				z"/>
		</g>
	</g>
	<g>
		<path style="fill:#BB5006;" d="M311.891,228V65.732c0-18.151-14.715-32.866-32.865-32.866c-18.153,0-32.868,14.715-32.868,32.866
			V228H311.891z"/>
		<path style="fill:#CD7E47;" d="M246.158,142.064c0.024-0.024,0.05-0.043,0.074-0.066l65.659-65.657V65.732
			c0-3.221-0.472-6.33-1.335-9.272l-64.398,64.397V142.064z"/>
		<g>
			<path style="fill:#CD7E47;" d="M305.444,161.248h6.426c0.007,0,0.015,0.001,0.021,0.001v-11.635l-11.86,11.86
				C301.82,161.338,303.621,161.248,305.444,161.248z"/>
		</g>
		<path style="fill:#CD7E47;" d="M246.158,189.309c0.024-0.023,0.05-0.043,0.074-0.066l65.659-65.658v-21.215l-65.733,65.732
			V189.309z"/>
	</g>
	<g>
		<path style="fill:#995C57;" d="M250.413,228V32.866C250.413,14.715,235.7,0,217.547,0c-18.151,0-32.865,14.715-32.865,32.866V228
			H250.413z"/>
		<path style="opacity:0.1;" d="M222.921,0.444C221.172,0.156,219.378,0,217.547,0c-18.151,0-32.865,14.715-32.865,32.866V228
			h10.747V32.866C195.428,16.546,207.327,3.01,222.921,0.444z"/>
		<g>
			<g>
				<path style="fill:#7F332D;" d="M208.818,70.664c1.919,0,3.839-0.732,5.303-2.196l17.46-17.46c2.929-2.93,2.929-7.678,0-10.607
					c-2.929-2.928-7.678-2.928-10.607,0l-17.46,17.46c-2.929,2.93-2.929,7.678,0,10.607
					C204.979,69.932,206.898,70.664,208.818,70.664z"/>
				<path style="fill:#7F332D;" d="M220.974,76.348l-17.46,17.46c-2.929,2.93-2.929,7.678,0,10.607
					c1.464,1.464,3.384,2.196,5.303,2.196c1.919,0,3.839-0.732,5.303-2.196l17.46-17.46c2.929-2.93,2.929-7.678,0-10.607
					C228.652,73.42,223.903,73.42,220.974,76.348z"/>
				<path style="fill:#7F332D;" d="M220.974,112.295l-17.46,17.46c-2.929,2.93-2.929,7.678,0,10.607
					c1.464,1.464,3.384,2.196,5.303,2.196c1.919,0,3.839-0.732,5.303-2.196l17.46-17.46c2.929-2.93,2.929-7.678,0-10.607
					C228.652,109.367,223.903,109.367,220.974,112.295z"/>
				<path style="fill:#7F332D;" d="M220.974,148.241l-17.46,17.46c-2.929,2.93-2.929,7.678,0,10.607
					c1.464,1.464,3.384,2.196,5.303,2.196c1.919,0,3.839-0.732,5.303-2.196l17.46-17.46c2.929-2.93,2.929-7.678,0-10.607
					C228.652,145.314,223.903,145.314,220.974,148.241z"/>
				<path style="fill:#7F332D;" d="M220.974,184.189l-17.46,17.46c-2.929,2.93-2.929,7.678,0,10.607
					c1.464,1.464,3.384,2.196,5.303,2.196c1.919,0,3.839-0.732,5.303-2.196l17.46-17.46c2.929-2.93,2.929-7.678,0-10.607
					C228.652,181.261,223.903,181.261,220.974,184.189z"/>
			</g>
		</g>
	</g>
	<path style="fill:#FFCB00;" d="M392.045,228c-2.825-37.283-33.68-66.752-71.229-66.752h-6.426
		c-37.551,0-68.406,29.469-71.231,66.752H392.045z"/>
	<path style="opacity:0.1;" d="M325.632,161.431c-1.594-0.108-3.196-0.183-4.816-0.183h-6.426
		c-37.551,0-68.406,29.469-71.231,66.752h16.059C261.921,192.325,290.292,163.825,325.632,161.431z"/>
	<g>
		<g>
			<path style="fill:#F39600;" d="M133.598,132.394c-1.013,0-2.016-0.308-2.868-0.904c-1.336-0.936-2.132-2.464-2.132-4.096v-27.333
				c0-20.436,16.626-37.061,37.061-37.061h3.664c20.435,0,37.061,16.625,37.061,37.061v2.659c0,2.102-1.314,3.979-3.289,4.698
				l-67.785,24.674C134.752,132.294,134.174,132.394,133.598,132.394z"/>
		</g>
		<path style="opacity:0.1;" d="M139.374,127.394v-27.333c0-19.235,14.732-35.09,33.504-36.886
			c-1.171-0.112-2.356-0.175-3.557-0.175h-3.664c-20.435,0-37.061,16.625-37.061,37.061v27.333c0,1.632,0.796,3.16,2.132,4.096
			c0.852,0.597,1.855,0.904,2.868,0.904c0.576,0,1.154-0.1,1.71-0.302l4.986-1.815C139.706,129.443,139.374,128.441,139.374,127.394
			z"/>
		<path style="fill:#F6B245;" d="M147.225,161c-11.127,0-21.161-7.027-24.968-17.486c-2.427-6.668-2.113-13.883,0.886-20.314
			c2.998-6.433,8.323-11.312,14.992-13.738l40.535-14.754c2.931-1.067,5.988-1.608,9.085-1.608c11.126,0,21.159,7.026,24.967,17.485
			c2.428,6.67,2.113,13.885-0.886,20.316c-2.999,6.433-8.324,11.311-14.993,13.738l-40.534,14.753
			C153.378,160.459,150.322,161,147.225,161z"/>
		<path style="opacity:0.1;" d="M138.776,143.514c-2.427-6.668-2.113-13.883,0.886-20.314c2.999-6.433,8.323-11.312,14.992-13.738
			l40.535-14.754c0.279-0.102,0.564-0.175,0.846-0.268c-2.63-0.868-5.417-1.341-8.279-1.341c-3.097,0-6.154,0.541-9.085,1.608
			l-40.535,14.754c-6.669,2.427-11.993,7.306-14.992,13.738c-2.999,6.432-3.313,13.646-0.886,20.314
			C126.064,153.973,136.098,161,147.225,161c2.802,0,5.565-0.466,8.239-1.341C147.869,157.15,141.603,151.282,138.776,143.514z"/>
		<path style="fill:#F39600;" d="M147.225,201.901c-11.127,0-21.161-7.027-24.968-17.486c-2.427-6.669-2.113-13.883,0.886-20.315
			c2.999-6.432,8.323-11.311,14.992-13.737l40.535-14.753c2.932-1.067,5.989-1.609,9.086-1.609c11.126,0,21.159,7.027,24.966,17.485
			c5.01,13.767-2.113,29.044-15.878,34.055l-40.535,14.753C153.378,201.36,150.322,201.901,147.225,201.901z"/>
		<path style="opacity:0.1;" d="M138.776,184.415c-2.427-6.669-2.113-13.883,0.886-20.315c2.999-6.432,8.323-11.311,14.992-13.737
			l40.535-14.753c0.28-0.102,0.565-0.176,0.847-0.268c-2.63-0.869-5.418-1.342-8.28-1.342c-3.097,0-6.154,0.542-9.086,1.609
			l-40.535,14.753c-6.669,2.427-11.993,7.306-14.992,13.737c-2.999,6.433-3.313,13.646-0.886,20.315
			c3.807,10.459,13.841,17.486,24.968,17.486c2.802,0,5.565-0.466,8.239-1.341C147.869,198.052,141.603,192.184,138.776,184.415z"/>
	</g>
	<path style="fill:#F6B245;" d="M123.691,228h67.433l5.72-2.082c13.766-5.012,20.889-20.287,15.878-34.054
		c-3.808-10.459-13.841-17.485-24.967-17.485c-3.097,0-6.154,0.541-9.085,1.608l-40.535,14.753
		c-6.669,2.427-11.993,7.306-14.992,13.737c-2.999,6.433-3.313,13.646-0.887,20.315C122.661,225.904,123.151,226.97,123.691,228z"/>
	<path style="opacity:0.1;" d="M139.662,204.477c2.999-6.432,8.323-11.31,14.992-13.737l40.535-14.753
		c0.279-0.102,0.564-0.175,0.846-0.268c-2.63-0.868-5.417-1.341-8.279-1.341c-3.097,0-6.154,0.541-9.085,1.608l-40.535,14.753
		c-6.669,2.427-11.993,7.306-14.992,13.737c-2.999,6.433-3.313,13.646-0.887,20.315c0.405,1.112,0.895,2.178,1.434,3.208h16.519
		c-0.54-1.03-1.029-2.096-1.434-3.208C136.348,218.124,136.663,210.91,139.662,204.477z"/>
	<g>
		<g>
			<path style="fill:#FFFEE2;" d="M302.839,186h-1.813c-3.461,0-6.266-2.805-6.266-6.266c0-3.462,2.805-6.267,6.266-6.267h1.813
				c3.461,0,6.266,2.805,6.266,6.267C309.104,183.195,306.3,186,302.839,186z"/>
		</g>
		<g>
			<path style="fill:#FBE24F;" d="M338.182,186h-1.813c-3.461,0-6.266-2.805-6.266-6.266c0-3.462,2.805-6.267,6.266-6.267h1.813
				c3.461,0,6.267,2.805,6.267,6.267C344.449,183.195,341.643,186,338.182,186z"/>
		</g>
		<g>
			<path style="fill:#FBE24F;" d="M285.184,206h-1.814c-3.461,0-6.266-2.805-6.266-6.267c0-3.461,2.805-6.266,6.266-6.266h1.814
				c3.461,0,6.266,2.805,6.266,6.266C291.45,203.195,288.645,206,285.184,206z"/>
		</g>
		<g>
			<path style="fill:#FFFEE2;" d="M320.348,206c-3.457,0-6.263-2.802-6.266-6.261c-0.004-3.461,2.8-6.269,6.26-6.271l1.814-0.002
				c0.002,0,0.004,0,0.006,0c3.458,0,6.263,2.802,6.267,6.261c0.003,3.461-2.801,6.269-6.261,6.271L320.354,206
				C320.352,206,320.35,206,320.348,206z"/>
		</g>
		<g>
			<path style="fill:#FFFEE2;" d="M358.839,206h-1.811c-3.462,0-6.267-2.805-6.267-6.267c0-3.461,2.805-6.266,6.267-6.266h1.811
				c3.461,0,6.266,2.805,6.266,6.266C365.104,203.195,362.3,206,358.839,206z"/>
		</g>
	</g>
	<g>
		<path style="fill:#F39600;" d="M381.585,211.605c-2.448-1.411-6.452-1.411-8.896,0.001l-11.293,6.516
			c-2.445,1.411-6.45,1.411-8.897,0l-11.294-6.517c-2.446-1.411-6.449-1.409-8.897,0.001l-11.29,6.516
			c-2.447,1.411-6.451,1.411-8.896,0l-11.294-6.517c-2.447-1.411-6.451-1.411-8.897,0l-11.294,6.517
			c-2.445,1.411-6.449,1.411-8.895,0l-11.292-6.516c-2.446-1.412-6.45-1.412-8.897,0l-11.292,6.516
			c-2.448,1.411-6.451,1.411-8.897,0l-11.294-6.517c-2.445-1.411-6.449-1.411-8.896,0l-11.293,6.517
			c-2.449,1.411-6.451,1.411-8.897,0l-11.292-6.516c-2.447-1.412-6.449-1.412-8.896,0l-11.292,6.516
			c-2.445,1.411-6.45,1.411-8.896,0l-11.293-6.517c-2.447-1.411-6.451-1.411-8.896,0l-16.089,9.282
			c-2.448,1.411-4.45,4.876-4.45,7.701v278.277c0,2.825,2.311,5.135,5.136,5.135h281.972c2.825,0,5.136-2.31,5.136-5.135V228.588
			c0-2.825-2.001-6.29-4.448-7.701L381.585,211.605z"/>
		<g style="opacity:0.1;">
			<path d="M143.77,506.865V228.588c0-2.825,2.002-6.29,4.45-7.701l3.778-2.18c-0.495-0.16-0.97-0.344-1.391-0.586l-11.293-6.517
				c-2.447-1.411-6.451-1.411-8.896,0l-16.089,9.282c-2.448,1.411-4.45,4.876-4.45,7.701v278.277c0,2.825,2.311,5.135,5.136,5.135
				h33.892C146.082,512,143.77,509.69,143.77,506.865z"/>
		</g>
	</g>
	<g>
		<ellipse style="fill:#FFCB00;" cx="256" cy="340.743" rx="68.193" ry="68.552"/>
		<path style="opacity:0.1;" d="M209.715,340.743c0-34.11,24.787-62.391,57.241-67.661c-3.567-0.578-7.225-0.891-10.955-0.891
			c-37.663,0-68.194,30.69-68.194,68.552c0,37.859,30.531,68.552,68.194,68.552c3.73,0,7.388-0.313,10.955-0.892
			C234.502,403.133,209.715,374.853,209.715,340.743z"/>
		<g>
			<path style="fill:#995C57;" d="M256.001,416.795c-41.738,0-75.694-34.116-75.694-76.052c0-41.936,33.957-76.052,75.694-76.052
				c41.737,0,75.692,34.116,75.692,76.052C331.693,382.679,297.738,416.795,256.001,416.795z M256.001,279.691
				c-33.467,0-60.694,27.388-60.694,61.052c0,33.664,27.228,61.052,60.694,61.052c33.466,0,60.692-27.388,60.692-61.052
				C316.693,307.079,289.467,279.691,256.001,279.691z"/>
		</g>
		<g>
			<path style="fill:#FBE24F;" d="M263.881,338.882h-23.585v35.799h23.585c9.833,0,17.806-8.014,17.806-17.899
				C281.686,346.897,273.714,338.882,263.881,338.882z"/>
			<path style="fill:#FBE24F;" d="M259.61,306.805h-19.314v32.283h19.314c8.868,0,16.056-7.227,16.056-16.143
				C275.666,314.03,268.478,306.805,259.61,306.805z"/>
		</g>
	</g>
	<g>
		<path style="fill:#995C57;" d="M294.778,445.553h-77.557c-4.142,0-7.5-3.357-7.5-7.5c0-4.143,3.358-7.5,7.5-7.5h77.557
			c4.143,0,7.5,3.357,7.5,7.5C302.278,442.195,298.921,445.553,294.778,445.553z"/>
	</g>
	<g>
		<path style="fill:#995C57;" d="M278.499,471.228h-44.998c-4.142,0-7.5-3.357-7.5-7.5c0-4.143,3.358-7.5,7.5-7.5h44.998
			c4.143,0,7.5,3.357,7.5,7.5C285.999,467.871,282.641,471.228,278.499,471.228z"/>
	</g>
	<path style="fill:#995C57;" d="M278.943,336.41c2.654-3.824,4.223-8.461,4.223-13.465c0-13.035-10.567-23.641-23.556-23.641
		h-19.314c-4.142,0-7.5,3.357-7.5,7.5v67.876c0,4.143,3.358,7.5,7.5,7.5h23.585c13.953,0,25.306-11.395,25.306-25.399
		C289.186,348.44,285.148,341.042,278.943,336.41z M247.796,314.305h11.814c4.718,0,8.556,3.876,8.556,8.641
		c0,4.766-3.838,8.643-8.556,8.643h-11.814V314.305z M263.881,367.181h-16.085v-20.799h16.085c5.683,0,10.306,4.665,10.306,10.4
		C274.186,362.516,269.563,367.181,263.881,367.181z"/>
</g>
<g>
</g>
<g>
</g>
<g>
</g>
<g>
</g>
<g>
</g>
<g>
</g>
<g>
</g>
<g>
</g>
<g>
</g>
<g>
</g>
<g>
</g>
<g>
</g>
<g>
</g>
<g>
</g>
<g>
</g>
</svg>
