<?xml version="1.0" encoding="iso-8859-1"?>
<!-- Generator: Adobe Illustrator 19.0.0, SVG Export Plug-In . SVG Version: 6.00 Build 0)  -->
<svg version="1.1" id="Layer_1" xmlns="http://www.w3.org/2000/svg" xmlns:xlink="http://www.w3.org/1999/xlink" x="0px" y="0px"
	 viewBox="0 0 512 512" style="enable-background:new 0 0 512 512;" xml:space="preserve">
<g>
	<path style="fill:#F8D2E3;" d="M479.457,75.75V23.799c0-8.499-6.954-15.453-15.453-15.453H35.932
		c-8.499,0-15.453,6.954-15.453,15.453V75.75H479.457z"/>
	<g>
		<rect x="20.479" y="59.266" style="fill:#F5BBD4;" width="458.978" height="216.25"/>
	</g>
	<g>
		<g>
			<path style="fill:#F39600;" d="M262.178,114.869c-19.483-25.793-72.138-32.615-126.973-14.377
				c-54.83,18.238-93.586,55.466-94.631,88.096c0,0,0.459,9.029,1.995,13.895c4.206,13.339,17.799,20.768,30.351,16.591
				l180.469-60.026c12.555-4.18,19.318-18.376,15.11-31.716C266.963,122.468,262.178,114.869,262.178,114.869z"/>
		</g>
		<g>
			<g>
				<path style="fill:#F7B54C;" d="M139.401,122.944c1.039,0.493,2.133,0.727,3.211,0.727c2.806,0,5.497-1.582,6.78-4.285
					l12.259-25.819c-6.173,1.188-12.443,2.703-18.763,4.546l-7.046,14.84C134.066,116.693,135.659,121.167,139.401,122.944z"/>
			</g>
			<g>
				<path style="fill:#F7B54C;" d="M171.468,112.118c1.038,0.492,2.132,0.726,3.208,0.726c2.807,0,5.499-1.583,6.782-4.288
					l8.652-18.243c-5.611,0.182-11.391,0.67-17.288,1.447l-4.917,10.368C166.131,105.871,167.726,110.344,171.468,112.118z"/>
			</g>
			<g>
				<path style="fill:#F7B54C;" d="M107.56,136.551c1.058,0.516,2.177,0.76,3.28,0.76c2.778,0,5.448-1.551,6.747-4.216
					l15.538-31.882c-7.232,2.488-14.174,5.303-20.778,8.396l-8.243,16.914C102.289,130.246,103.836,134.735,107.56,136.551z"/>
			</g>
		</g>
	</g>
	<g>
		<path style="fill:#995C57;" d="M293.391,147.965c-0.576,0.521-1.145,1.049-1.697,1.593
			C292.247,149.015,292.815,148.485,293.391,147.965z"/>
		<path style="fill:#7F332D;" d="M451.955,160.853c-6.779-29.703-36.407-48.284-66.045-41.431
			c-9.408,2.178-17.694,6.669-24.419,12.726c5.077,4.181,10.228,9.184,15.444,15.023c2.76,3.089,2.493,7.83-0.596,10.59
			c-1.431,1.278-3.216,1.907-4.995,1.907c-2.062,0-4.114-0.845-5.595-2.503c-7.917-8.861-18.284-18.496-29.032-23.047h0.001
			c-6.123-0.727-12.471-0.431-18.82,1.039c-9.383,2.171-17.645,6.646-24.359,12.677c7.594,6.096,13.575,12.752,17.217,17.219
			c2.617,3.21,2.137,7.935-1.074,10.552c-1.392,1.135-3.069,1.688-4.735,1.688c-2.176,0-4.335-0.942-5.817-2.761
			c-4.439-5.444-17.277-19.881-32.052-24.846c-5.615-0.495-11.4-0.135-17.187,1.204c-29.642,6.857-48.24,36.598-41.462,66.297
			c0.836,3.662,2.042,7.246,3.587,10.644c1.156,2.535,3.935,3.906,6.648,3.28l230.116-53.236c2.713-0.627,4.619-3.081,4.559-5.872
			C453.254,168.268,452.789,164.512,451.955,160.853z"/>
		<g>
			<path style="fill:#BB5006;" d="M365.748,157.165c1.481,1.658,3.534,2.503,5.595,2.503c1.778,0,3.564-0.629,4.995-1.907
				c3.089-2.76,3.355-7.501,0.596-10.59c-5.216-5.839-10.367-10.843-15.444-15.023c-2.489,2.242-4.771,4.691-6.807,7.327
				c-5.585-2.774-11.657-4.608-17.966-5.356C347.464,138.669,357.831,148.304,365.748,157.165z"/>
		</g>
		<path style="fill:#995C57;" d="M293.391,147.965c0.049-0.044,0.099-0.088,0.147-0.131c-0.001-0.002-0.002-0.003-0.004-0.004
			C293.485,147.874,293.44,147.921,293.391,147.965z"/>
		<g>
			<path style="fill:#BB5006;" d="M286.671,155.206c-6.064-3.012-12.703-4.913-19.596-5.521
				c14.776,4.964,27.615,19.402,32.054,24.847c1.483,1.818,3.641,2.761,5.817,2.761c1.666,0,3.343-0.553,4.735-1.688
				c3.21-2.617,3.691-7.342,1.074-10.552c-3.643-4.468-9.625-11.126-17.221-17.223C291.023,150.085,288.722,152.551,286.671,155.206
				z"/>
		</g>
	</g>
	<g>
		<g>
			<path style="fill:#FF96B1;" d="M498.984,204.397c2.344-3.369,4.385-7.024,6.071-10.945c13.449-31.279-0.819-67.605-31.87-81.137
				c-31.049-13.535-67.12,0.85-80.569,32.128c-1.686,3.92-2.934,7.921-3.771,11.948L498.984,204.397z"/>
		</g>
		<g>
			<g>
				<path style="fill:#82DDAB;" d="M391.106,139.381c-2.597-1.133-4.668,0.259-4.603,3.091l1.658,71.701
					c0.065,2.833,2.244,6.077,4.841,7.208l56.068,24.438c2.597,1.133,6.443,0.507,8.547-1.391l53.034-47.825
					c2.104-1.897,1.701-4.375-0.896-5.508L391.106,139.381z"/>
			</g>
			<g>
				<polygon style="fill:#4CCE87;" points="426.002,154.59 408.541,228.154 433.53,239.047 474.857,175.885 				"/>
			</g>
		</g>
		<g>
			<g>
				<path style="fill:#FFFFFF;" d="M468.56,132.859c-1.98,0-3.91-0.8-5.3-2.199c-1.4-1.4-2.2-3.33-2.2-5.301
					c0-1.979,0.8-3.909,2.2-5.3c1.39-1.399,3.32-2.2,5.3-2.2c1.97,0,3.91,0.801,5.3,2.2c1.4,1.391,2.2,3.32,2.2,5.3
					c0,1.971-0.8,3.9-2.2,5.301C472.47,132.06,470.53,132.859,468.56,132.859z"/>
			</g>
		</g>
		<g>
			<g>
				<path style="fill:#FFCB00;" d="M485.28,157.95c-1.97,0-3.9-0.811-5.3-2.2c-1.4-1.4-2.2-3.33-2.2-5.311c0-1.97,0.8-3.9,2.2-5.3
					c1.4-1.399,3.33-2.2,5.3-2.2c1.98,0,3.91,0.801,5.3,2.2c1.4,1.4,2.2,3.33,2.2,5.3c0,1.98-0.8,3.91-2.2,5.311
					C489.19,157.14,487.25,157.95,485.28,157.95z"/>
			</g>
		</g>
		<g>
			<g>
				<path style="fill:#FFCB00;" d="M441.26,138.76c-1.97,0-3.91-0.8-5.3-2.2c-1.4-1.399-2.2-3.33-2.2-5.3c0-1.98,0.8-3.91,2.2-5.31
					c1.4-1.391,3.33-2.19,5.3-2.19c1.97,0,3.91,0.8,5.31,2.19c1.39,1.399,2.19,3.329,2.19,5.31c0,1.97-0.8,3.9-2.19,5.3
					C445.17,137.96,443.24,138.76,441.26,138.76z"/>
			</g>
		</g>
	</g>
	<g>
		<g>
			<path style="fill:#FF7697;" d="M125.638,229.533c-2.987,0-5.745-1.588-7.236-4.161c-4.416-7.638-6.66-16.253-6.66-25.605
				c0-34.91,31.276-63.314,69.72-63.314c38.445,0,69.722,28.403,69.722,63.314c0,9.352-2.243,17.968-6.66,25.605
				c-1.491,2.573-4.251,4.161-7.237,4.161H125.638z"/>
		</g>
		<g>
			<path style="fill:#FF6489;" d="M181.463,164.832c4.142,0,7.5-3.357,7.5-7.5v-20.507c-2.465-0.241-4.967-0.372-7.501-0.372
				c-2.534,0-5.034,0.131-7.499,0.371v20.508C173.963,161.475,177.321,164.832,181.463,164.832z"/>
		</g>
		<g>
			<path style="fill:#FF6489;" d="M156.044,164.832c4.142,0,7.5-3.357,7.5-7.5v-18.749c-5.27,1.273-10.296,3.091-15,5.39v13.359
				C148.544,161.475,151.902,164.832,156.044,164.832z"/>
		</g>
		<g>
			<path style="fill:#FF6489;" d="M206.637,164.832c4.142,0,7.5-3.357,7.5-7.5v-13.473c-4.708-2.278-9.731-4.084-15-5.34v18.813
				C199.137,161.475,202.495,164.832,206.637,164.832z"/>
		</g>
	</g>
	<g>
		<path style="fill:#FFCB00;" d="M15.454,283.467h150.574c9.026-8.555,14.671-20.686,14.671-34.152
			c0-25.902-20.856-46.904-46.585-46.904c-0.573,0-1.142,0.024-1.71,0.044c-7.649-15.367-23.427-25.92-41.662-25.92
			c-18.236,0-34.013,10.553-41.663,25.92c-0.568-0.02-1.137-0.044-1.71-0.044c-25.729,0-46.586,21.002-46.586,46.904
			C0.783,262.781,6.427,274.912,15.454,283.467z"/>
		<g>
			<g>
				<path style="fill:#F6B142;" d="M54.665,224.024L54.665,224.024c-7.019,0-13.616,2.749-18.574,7.741
					c-2.919,2.939-2.903,7.688,0.036,10.607c1.463,1.453,3.374,2.179,5.285,2.179c1.928,0,3.855-0.739,5.321-2.215
					c2.122-2.136,4.938-3.313,7.931-3.312c2.993,0,5.809,1.176,7.93,3.312c2.92,2.94,7.668,2.956,10.607,0.036
					c2.939-2.919,2.955-7.667,0.037-10.607C68.28,226.773,61.684,224.024,54.665,224.024z"/>
			</g>
			<g>
				<path style="fill:#F6B142;" d="M147.132,231.766c-4.958-4.992-11.555-7.742-18.574-7.741c-7.019,0-13.614,2.749-18.572,7.741
					c-2.918,2.939-2.902,7.689,0.037,10.607c2.938,2.916,7.687,2.9,10.606-0.037c2.121-2.136,4.937-3.312,7.929-3.312
					c2.993-0.001,5.81,1.176,7.931,3.312c1.466,1.476,3.394,2.215,5.321,2.215c1.911,0,3.822-0.726,5.285-2.179
					C150.035,239.453,150.051,234.705,147.132,231.766z"/>
			</g>
			<g>
				<path style="fill:#F6B142;" d="M109.314,203.731c-4.958-4.992-11.555-7.742-18.574-7.741c-7.019,0-13.615,2.749-18.573,7.741
					c-2.919,2.939-2.903,7.688,0.036,10.606c1.463,1.453,3.374,2.179,5.285,2.179c1.928,0,3.855-0.739,5.321-2.215
					c2.121-2.136,4.938-3.311,7.93-3.311c2.993-0.001,5.81,1.176,7.931,3.311c2.92,2.941,7.668,2.955,10.606,0.036
					C112.217,211.418,112.233,206.669,109.314,203.731z"/>
			</g>
		</g>
	</g>
	<g>
		<path style="fill:#FFCB00;" d="M486.325,283.467c0.158-0.748,0.244-1.522,0.244-2.316v-4.454
			c0-54.679-44.388-99.162-98.951-99.162h-8.897c-54.562,0-98.953,44.483-98.953,99.162v4.454c0,0.795,0.086,1.568,0.244,2.316
			H486.325z"/>
		<g>
			<g>
				<path style="fill:#F6B142;" d="M363.745,210.781h-3.002c-4.142,0-7.5-3.357-7.5-7.5c0-4.143,3.358-7.5,7.5-7.5h3.002
					c4.142,0,7.5,3.357,7.5,7.5C371.245,207.424,367.887,210.781,363.745,210.781z"/>
			</g>
			<g>
				<path style="fill:#F6B142;" d="M407.787,210.781h-3.002c-4.142,0-7.5-3.357-7.5-7.5c0-4.143,3.358-7.5,7.5-7.5h3.002
					c4.142,0,7.5,3.357,7.5,7.5C415.287,207.424,411.929,210.781,407.787,210.781z"/>
			</g>
			<g>
				<path style="fill:#F6B142;" d="M345.728,232.697h-3.002c-4.142,0-7.5-3.357-7.5-7.5c0-4.143,3.358-7.5,7.5-7.5h3.002
					c4.142,0,7.5,3.357,7.5,7.5C353.228,229.34,349.87,232.697,345.728,232.697z"/>
			</g>
			<g>
				<path style="fill:#F6B142;" d="M389.768,232.697h-3.001c-4.142,0-7.5-3.357-7.5-7.5c0-4.143,3.358-7.5,7.5-7.5h3.001
					c4.142,0,7.5,3.357,7.5,7.5C397.268,229.34,393.91,232.697,389.768,232.697z"/>
			</g>
			<g>
				<path style="fill:#F6B142;" d="M433.81,232.697h-3.004c-4.142,0-7.5-3.357-7.5-7.5c0-4.143,3.358-7.5,7.5-7.5h3.004
					c4.142,0,7.5,3.357,7.5,7.5C441.31,229.34,437.952,232.697,433.81,232.697z"/>
			</g>
		</g>
	</g>
	<g>
		<path style="fill:#BB5006;" d="M336.075,283.467c0.675-3.916,1.022-7.952,1.022-12.104c0-45.438-40.707-82.405-90.739-82.405
			c-50.036,0-90.741,36.967-90.741,82.405c0,4.151,0.348,8.188,1.022,12.104H336.075z"/>
		<path style="fill:#A84400;" d="M244.132,218.512l26.62-26.525c-5.913-1.5-12.067-2.467-18.397-2.844l-18.849,18.781
			l-15.034-14.979c-5.324,1.565-10.436,3.56-15.28,5.949l19.688,19.618l-17.952,17.888c-2.934,2.924-2.942,7.672-0.019,10.607
			c1.466,1.471,3.389,2.206,5.313,2.206c1.915,0,3.83-0.729,5.294-2.188l17.99-17.926l11.572,11.53
			c1.464,1.459,3.379,2.188,5.294,2.188c1.924,0,3.848-0.735,5.313-2.206c2.923-2.935,2.915-7.684-0.019-10.606L244.132,218.512z"/>
	</g>
	<path style="fill:#FF5E97;" d="M494.77,273.121H5.167c-2.841,0-5.167,2.326-5.167,5.166v193.538h499.936V278.287
		C499.936,275.447,497.611,273.121,494.77,273.121z"/>
	<g>
		<rect y="349.004" style="fill:#A4E6C2;" width="499.936" height="44.626"/>
	</g>
	<path style="fill:#1E8574;" d="M499.936,498.486v-26.661H0v26.661c0,2.843,2.325,5.168,5.167,5.168H494.77
		C497.611,503.654,499.936,501.329,499.936,498.486z"/>
	<g>
		<g>
			<path style="fill:#A4E6C2;" d="M305.399,429.899c-30.754,30.757-80.502,30.87-111.115,0.253
				c-30.614-30.616-30.501-80.367,0.252-111.125c30.753-30.757,80.501-30.87,111.116-0.254
				C336.266,349.392,336.153,399.143,305.399,429.899z"/>
		</g>
	</g>
	<path style="fill:#FFCB00;" d="M263.466,360.824c-0.282-0.282-0.499-0.63-0.622-1.021c-2.607-8.151-0.459-16.983,5.605-23.047
		c6.065-6.065,14.896-8.215,23.048-5.606c0.39,0.123,0.739,0.34,1.021,0.622c0.282,0.282,0.498,0.631,0.622,1.022
		c2.607,8.15,0.458,16.982-5.607,23.046c-6.064,6.064-14.895,8.212-23.046,5.605C264.096,361.322,263.748,361.106,263.466,360.824z"
		/>
	<g>
		<path style="fill:#FBE24F;" d="M251.456,370.134c-0.4,0.001-0.799-0.092-1.165-0.278c-7.615-3.895-12.335-11.629-12.313-20.187
			c0.018-8.559,4.772-16.313,12.406-20.242c0.365-0.19,0.765-0.284,1.166-0.284c0.398-0.002,0.798,0.092,1.164,0.279
			c7.615,3.895,12.334,11.629,12.314,20.186c-0.02,8.558-4.773,16.314-12.407,20.244
			C252.255,370.038,251.855,370.134,251.456,370.134z"/>
		<path style="fill:#FBE24F;" d="M254.155,372.833c0.001-0.398,0.096-0.799,0.284-1.165c3.929-7.634,11.685-12.387,20.244-12.406
			c8.556-0.018,16.291,4.699,20.186,12.314c0.187,0.365,0.28,0.764,0.279,1.163c0,0.4-0.096,0.801-0.283,1.167
			c-3.93,7.633-11.686,12.388-20.243,12.406c-8.558,0.019-16.292-4.7-20.188-12.315
			C254.247,373.632,254.154,373.233,254.155,372.833z"/>
	</g>
	<g>
		<path style="fill:#FFCB00;" d="M232.773,388.818c-0.4,0-0.799-0.091-1.166-0.279c-7.615-3.896-12.334-11.63-12.313-20.186
			c0.018-8.559,4.773-16.314,12.406-20.244c0.366-0.189,0.766-0.282,1.166-0.283c0.399-0.001,0.799,0.092,1.164,0.278
			c7.616,3.896,12.334,11.629,12.315,20.186c-0.02,8.557-4.774,16.315-12.407,20.243
			C233.571,388.724,233.172,388.816,232.773,388.818z"/>
		<path style="fill:#FFCB00;" d="M235.472,391.518c0.001-0.4,0.095-0.799,0.283-1.166c3.929-7.633,11.686-12.388,20.243-12.407
			c8.558-0.018,16.292,4.699,20.187,12.316c0.187,0.365,0.28,0.764,0.278,1.163c0,0.398-0.095,0.8-0.282,1.167
			c-3.931,7.632-11.686,12.386-20.243,12.405c-8.557,0.02-16.293-4.699-20.188-12.315
			C235.563,392.316,235.469,391.918,235.472,391.518z"/>
	</g>
	<g>
		<path style="fill:#FBE24F;" d="M214.321,407.27c-0.4,0.002-0.799-0.092-1.165-0.277c-7.617-3.896-12.335-11.631-12.314-20.188
			c0.018-8.558,4.773-16.315,12.406-20.243c0.366-0.189,0.766-0.283,1.166-0.284c0.399-0.002,0.799,0.093,1.164,0.279
			c7.616,3.895,12.334,11.629,12.316,20.186c-0.02,8.558-4.774,16.316-12.407,20.244C215.12,407.175,214.721,407.27,214.321,407.27z
			"/>
		<path style="fill:#FBE24F;" d="M217.02,409.969c0.001-0.4,0.095-0.799,0.283-1.165c3.929-7.633,11.686-12.388,20.244-12.407
			c8.557-0.02,16.291,4.7,20.185,12.315c0.188,0.365,0.28,0.764,0.279,1.163c-0.001,0.401-0.095,0.8-0.283,1.167
			c-3.93,7.632-11.686,12.387-20.244,12.406c-8.557,0.021-16.292-4.7-20.186-12.315C217.111,410.768,217.018,410.369,217.02,409.969
			z"/>
	</g>
	<g>
		<g>
			<path style="fill:#F6B142;" d="M207.476,424.313c-1.92,0-3.839-0.732-5.303-2.196c-2.929-2.93-2.929-7.678,0-10.607l53.31-53.309
				c2.929-2.928,7.678-2.928,10.606,0c2.929,2.93,2.929,7.678,0,10.607l-53.31,53.309
				C211.315,423.58,209.395,424.313,207.476,424.313z"/>
		</g>
	</g>
</g>
<g>
</g>
<g>
</g>
<g>
</g>
<g>
</g>
<g>
</g>
<g>
</g>
<g>
</g>
<g>
</g>
<g>
</g>
<g>
</g>
<g>
</g>
<g>
</g>
<g>
</g>
<g>
</g>
<g>
</g>
</svg>
