<?xml version="1.0" encoding="iso-8859-1"?>
<!-- Generator: Adobe Illustrator 19.0.0, SVG Export Plug-In . SVG Version: 6.00 Build 0)  -->
<svg version="1.1" id="Layer_1" xmlns="http://www.w3.org/2000/svg" xmlns:xlink="http://www.w3.org/1999/xlink" x="0px" y="0px"
	 viewBox="0 0 512 512" style="enable-background:new 0 0 512 512;" xml:space="preserve">
<path style="fill:#299FBC;" d="M266.425,393.327c0,4.638,3.81,8.436,8.467,8.436h145.617c4.656,0,8.465-3.798,8.465-8.436V362
	H266.425V393.327z"/>
<g>
	<path style="fill:#299FBC;" d="M498.958,185.878h-54.609v126.528h54.609c7.174,0,13.042-5.846,13.042-12.994v-100.54
		C512,191.725,506.132,185.878,498.958,185.878z M483.436,279.206c0,1.133-0.928,2.061-2.06,2.061h-26.803
		c-1.133,0-2.06-0.927-2.06-2.061v-60.128c0-1.133,0.928-2.061,2.06-2.061h26.803c1.133,0,2.06,0.927,2.06,2.061V279.206z"/>
	<path style="fill:#19A9C1;" d="M445.906,158.829H249.491c-4.656,0-8.467,3.795-8.467,8.436V342.89
		c0,13.917,11.43,25.305,25.4,25.305h162.549c13.97,0,25.399-11.387,25.399-25.305V167.264
		C454.373,162.624,450.563,158.829,445.906,158.829z"/>
	<path style="opacity:0.1;" d="M274.543,342.89V167.264c0-4.64,3.811-8.436,8.467-8.436h-33.519c-4.656,0-8.467,3.795-8.467,8.436
		V342.89c0,13.917,11.43,25.305,25.4,25.305h33.519C285.973,368.194,274.543,356.807,274.543,342.89z"/>
	<g>
		<g>
			<path style="fill:#008DAF;" d="M395.957,237.184c-4.143,0-7.5-3.358-7.5-7.5v-70.855c0-4.142,3.357-7.5,7.5-7.5
				c4.143,0,7.5,3.358,7.5,7.5v70.855C403.457,233.826,400.099,237.184,395.957,237.184z"/>
		</g>
		<g>
			<path style="fill:#FBE24F;" d="M420.509,266.929c0,1.7-1.39,3.09-3.091,3.09h-42.921c-1.7,0-3.091-1.39-3.091-3.09v-54.552
				c0-1.7,1.391-3.091,3.091-3.091h42.921c1.701,0,3.091,1.391,3.091,3.091V266.929z"/>
			<path style="opacity:0.1;" d="M385.271,266.929v-54.552c0-1.7,1.391-3.091,3.091-3.091h-13.865c-1.7,0-3.091,1.391-3.091,3.091
				v54.552c0,1.7,1.391,3.09,3.091,3.09h13.865C386.662,270.019,385.271,268.629,385.271,266.929z"/>
		</g>
	</g>
	<path style="fill:#F8C066;" d="M393.576,504.337c-4.42,0-8.867-1.052-12.946-3.202c-50.116-26.415-108.9-40.378-169.99-40.378
		c-61.091,0-119.871,13.963-169.99,40.378c-4.079,2.15-8.524,3.202-12.946,3.202c-6.4,0-12.749-2.207-17.855-6.495
		c-8.634-7.25-11.985-18.996-8.471-29.688c10.735-32.656,29.492-62.844,54.247-87.301c41.505-41.008,96.558-63.59,155.016-63.59
		c58.459,0,113.513,22.582,155.015,63.59c24.76,24.46,43.519,54.648,54.25,87.302c3.512,10.693,0.159,22.438-8.473,29.688
		C406.325,502.13,399.977,504.337,393.576,504.337z"/>
	<path style="fill:#FF96B1;" d="M329.291,491.861c-0.643,0-1.295-0.095-1.932-0.293c-37.05-11.471-76.321-17.287-116.72-17.287
		c-40.399,0-79.67,5.816-116.72,17.287c-0.638,0.198-1.288,0.292-1.933,0.293c-1.942,0-3.827-0.869-5.086-2.434l-64.095-79.712
		c-1.888-2.349-1.908-5.683-0.05-8.056c45.534-58.091,114.015-91.409,187.884-91.409c73.87,0,142.351,33.318,187.883,91.41
		c1.858,2.372,1.84,5.706-0.05,8.055l-64.097,79.712C333.119,490.992,331.234,491.861,329.291,491.861z"/>
	<path style="opacity:0.1;" d="M29.707,468.154c3.688-11.219,8.344-22.136,13.843-32.639l-16.303-20.276
		c-10.985,16.431-19.74,34.267-25.87,52.915c-3.514,10.692-0.163,22.439,8.471,29.688c5.106,4.288,11.455,6.495,17.855,6.495
		c4.422,0,8.868-1.052,12.946-3.202c0.423-0.223,0.851-0.438,1.274-0.658c-1.304-0.77-2.561-1.64-3.746-2.635
		C29.544,490.593,26.193,478.847,29.707,468.154z"/>
	<path style="fill:#F6AD38;" d="M329.291,491.861c-0.643,0-1.295-0.095-1.932-0.293c-37.05-11.471-76.321-17.287-116.72-17.287
		c-40.399,0-79.67,5.816-116.72,17.287c-0.638,0.198-1.288,0.292-1.933,0.293c-1.942,0-3.827-0.869-5.086-2.434l-64.095-79.712
		c-1.888-2.349-1.908-5.683-0.05-8.056c45.534-58.091,114.015-91.409,187.884-91.409c73.87,0,142.351,33.318,187.883,91.41
		c1.858,2.372,1.84,5.706-0.05,8.055l-64.097,79.712C333.119,490.992,331.234,491.861,329.291,491.861z"/>
	<path style="opacity:0.1;" d="M50.893,401.66c12.735-16.247,27.276-30.539,43.216-42.723l-5.667-15.242
		c-24.899,14.851-47.187,34.363-65.687,57.965c-1.858,2.372-1.838,5.706,0.05,8.056l64.095,79.712
		c1.259,1.565,3.144,2.434,5.086,2.434c0.645-0.002,1.295-0.095,1.933-0.293c6.15-1.904,12.367-3.637,18.634-5.229l-61.611-76.623
		C49.056,407.367,49.035,404.033,50.893,401.66z"/>
	<g>
		<path style="fill:#F39600;" d="M356.612,419.275c-11.126-14.195-24.018-26.483-38.246-36.664l-5.439,14.63
			c11.784,8.867,22.515,19.338,31.879,31.287c1.479,1.888,3.683,2.874,5.908,2.874c1.619,0,3.249-0.521,4.622-1.598
			C358.596,427.249,359.167,422.536,356.612,419.275z"/>
		<path style="fill:#F39600;" d="M102.913,382.611c-14.229,10.181-27.12,22.468-38.246,36.663c-2.555,3.26-1.984,7.974,1.276,10.529
			c3.259,2.556,7.975,1.984,10.529-1.276c9.365-11.948,20.096-22.419,31.88-31.286L102.913,382.611z"/>
	</g>
	<g>
		<path style="fill:#F39600;" d="M113.107,410.027c-7.231,6.264-13.927,13.268-19.97,20.978c-2.555,3.26-1.984,7.975,1.276,10.53
			c3.26,2.555,7.974,1.984,10.53-1.276c4.254-5.427,8.871-10.461,13.792-15.097L113.107,410.027z"/>
		<path style="fill:#F39600;" d="M308.172,410.029l-5.628,15.135c4.92,4.636,9.537,9.669,13.79,15.096
			c1.48,1.888,3.683,2.874,5.908,2.874c1.618,0,3.249-0.522,4.622-1.598c3.26-2.555,3.831-7.269,1.276-10.529
			C322.098,423.297,315.402,416.292,308.172,410.029z"/>
	</g>
	<path style="fill:#F8C066;" d="M145.629,485.303c-2.69,0-5.149-1.663-6.107-4.237l-52.106-140.13c-1.137-3.058,0.179-6.481,3.076-8
		c36.796-19.289,78.344-29.485,120.148-29.485c41.808,0,83.355,10.196,120.148,29.485c2.898,1.519,4.214,4.942,3.076,8
		l-52.105,140.129c-0.956,2.575-3.415,4.238-6.105,4.238c-0.314,0-0.631-0.023-0.949-0.069c-20.998-3.065-42.556-4.617-64.064-4.617
		c-21.51,0-43.063,1.552-64.063,4.617C146.259,485.28,145.942,485.303,145.629,485.303z"/>
	<g style="opacity:0.1;">
		<path d="M163.772,483.085l-1.748-16.37l-46.77-125.78c-1.137-3.058,0.179-6.481,3.076-8c9.085-4.763,18.468-8.949,28.064-12.585
			l-0.916-8.578c-19.076,4.939-37.564,12.03-54.986,21.163c-2.896,1.519-4.213,4.942-3.076,8l52.106,140.13
			c0.957,2.574,3.416,4.237,6.107,4.237c0.313,0,0.63-0.023,0.948-0.069c6.757-0.986,13.575-1.797,20.427-2.468
			C165.926,482.872,164.848,482.972,163.772,483.085z"/>
	</g>
	<path style="fill:#F6AD38;" d="M145.478,311.772l18.294,171.313c15.493-1.634,31.19-2.468,46.867-2.468
		c15.675,0,31.375,0.835,46.866,2.468l18.296-171.313c-21.211-5.492-43.15-8.322-65.162-8.322
		C188.629,303.45,166.69,306.28,145.478,311.772z"/>
	<g>
		<g>
			<path style="fill:#F39600;" d="M188.898,437.153c-4.142,0-7.5,3.358-7.5,7.5v36.926c4.99-0.328,9.993-0.563,15-0.724v-36.202
				C196.398,440.511,193.04,437.153,188.898,437.153z"/>
			<path style="fill:#F39600;" d="M232.382,437.153c-4.142,0-7.5,3.358-7.5,7.5v36.202c5.007,0.16,10.01,0.397,15,0.724v-36.926
				C239.882,440.511,236.524,437.153,232.382,437.153z"/>
		</g>
		<path style="fill:#F39600;" d="M210.639,430.877c-4.142,0-7.5,3.358-7.5,7.5v42.311c2.5-0.042,5-0.071,7.5-0.071
			s5,0.029,7.5,0.071v-42.311C218.139,434.235,214.782,430.877,210.639,430.877z"/>
	</g>
	<path style="fill:#FBE24F;" d="M441.504,7.663h-23.406c-4.143,0-7.5,3.358-7.5,7.5s3.357,7.5,7.5,7.5h23.406
		c14.57,0,26.425,11.876,26.425,26.474c0,14.599-11.854,26.475-26.425,26.475h-67.32c-19.809,0-35.925,16.135-35.925,35.967v18.484
		c0,4.142,3.357,7.5,7.5,7.5s7.5-3.358,7.5-7.5v-18.484c0-11.561,9.387-20.967,20.925-20.967h67.32
		c22.842,0,41.425-18.605,41.425-41.475C482.929,26.268,464.346,7.663,441.504,7.663z"/>
	<g>
		<g>
			<path style="fill:#FBE24F;" d="M305.925,102.421h-38.357c-18.331,0-33.243-14.985-33.243-33.406
				c0-18.42,14.913-33.406,33.243-33.406h13.77c4.143,0,7.5,3.358,7.5,7.5s-3.357,7.5-7.5,7.5h-13.77
				c-10.06,0-18.243,8.257-18.243,18.406c0,10.149,8.184,18.406,18.243,18.406h38.357c4.143,0,7.5,3.358,7.5,7.5
				C313.425,99.063,310.067,102.421,305.925,102.421z"/>
		</g>
	</g>
</g>
<g>
</g>
<g>
</g>
<g>
</g>
<g>
</g>
<g>
</g>
<g>
</g>
<g>
</g>
<g>
</g>
<g>
</g>
<g>
</g>
<g>
</g>
<g>
</g>
<g>
</g>
<g>
</g>
<g>
</g>
</svg>
