<?xml version="1.0" encoding="iso-8859-1"?>
<!-- Generator: Adobe Illustrator 19.0.0, SVG Export Plug-In . SVG Version: 6.00 Build 0)  -->
<svg version="1.1" id="Layer_1" xmlns="http://www.w3.org/2000/svg" xmlns:xlink="http://www.w3.org/1999/xlink" x="0px" y="0px"
	 viewBox="0 0 511.999 511.999" style="enable-background:new 0 0 511.999 511.999;" xml:space="preserve">
<g>
	<g>
		<path style="fill:#FF7697;" d="M495.58,190c-2.263-70.616-59.404-127.16-129.57-127.16c-70.168,0-127.308,56.544-129.571,127.16
			H495.58z"/>
		<path style="fill:#FF6489;" d="M495.58,190c-0.457-14.251-3.142-27.929-7.726-40.686c-0.162-0.003-0.323-0.013-0.487-0.013
			c-8.279,0-15.707,3.64-20.785,9.402c-5.079-5.762-12.504-9.402-20.786-9.402c-8.28,0-15.707,3.64-20.785,9.402
			c-5.079-5.762-12.505-9.402-20.787-9.402c-8.279,0-15.705,3.64-20.785,9.402c-5.078-5.762-12.504-9.402-20.786-9.402
			c-8.281,0-15.706,3.64-20.785,9.402c-5.079-5.762-12.505-9.402-20.787-9.402c-8.28,0-15.706,3.64-20.783,9.402
			c-5.08-5.762-12.506-9.402-20.787-9.402c-8.281,0-15.707,3.64-20.786,9.402c-3.814-4.329-8.956-7.459-14.786-8.75
			c-4.446,12.575-7.055,26.033-7.505,40.046H495.58z"/>
		<path style="opacity:0.1;" d="M269.778,190c2.081-64.932,50.559-117.964,112.902-126.081c-5.458-0.711-11.021-1.079-16.67-1.079
			c-70.168,0-127.308,56.544-129.571,127.16H269.778z"/>
		<g>
			<g>
				<path style="fill:#A4E6C2;" d="M223.46,185.732c-2.833,0-4.192,2.11-3.02,4.689l67.898,149.376
					c1.172,2.579,4.449,4.689,7.282,4.689h21.942l-46.271-158.754H223.46z"/>
				<path style="fill:#A4E6C2;" d="M508.558,185.732h-47.834l-46.273,158.754h21.947c2.833,0,6.11-2.11,7.282-4.689l67.898-149.376
					C512.75,187.842,511.391,185.732,508.558,185.732z"/>
			</g>
			<g>
				<polygon style="fill:#82DDAB;" points="271.292,185.732 317.563,344.486 349.024,344.486 332.8,185.732 				"/>
				<polygon style="fill:#82DDAB;" points="399.219,185.732 382.993,344.486 414.451,344.486 460.724,185.732 				"/>
			</g>
			<polygon style="fill:#A4E6C2;" points="332.8,185.732 349.024,344.486 382.993,344.486 399.219,185.732 			"/>
		</g>
		<g>
			<g>
				<path style="fill:#FBE24F;" d="M369.226,95.945h-6.434c-4.267,0-7.726-3.459-7.726-7.727c0-4.267,3.459-7.726,7.726-7.726h6.434
					c4.267,0,7.727,3.459,7.727,7.726C376.952,92.486,373.493,95.945,369.226,95.945z"/>
			</g>
			<g>
				<g>
					<path style="fill:#FFFFFF;" d="M323.559,111.204h-6.432c-4.267,0-7.727-3.459-7.727-7.726s3.46-7.726,7.727-7.726h6.432
						c4.268,0,7.727,3.459,7.727,7.726S327.826,111.204,323.559,111.204z"/>
				</g>
				<g>
					<path style="fill:#FFFFFF;" d="M414.89,111.204h-6.431c-4.267,0-7.726-3.459-7.726-7.726s3.459-7.726,7.726-7.726h6.431
						c4.267,0,7.727,3.459,7.727,7.726S419.157,111.204,414.89,111.204z"/>
				</g>
			</g>
			<g>
				<g>
					<path style="fill:#FBE24F;" d="M292.044,134.093h-6.432c-4.267,0-7.727-3.459-7.727-7.726s3.46-7.726,7.727-7.726h6.432
						c4.267,0,7.726,3.459,7.726,7.726S296.311,134.093,292.044,134.093z"/>
				</g>
				<g>
					<path style="fill:#FBE24F;" d="M369.226,134.093h-6.434c-4.267,0-7.726-3.459-7.726-7.726s3.459-7.726,7.726-7.726h6.434
						c4.267,0,7.727,3.459,7.727,7.726S373.493,134.093,369.226,134.093z"/>
				</g>
				<g>
					<path style="fill:#FBE24F;" d="M446.406,134.093h-6.431c-4.267,0-7.726-3.459-7.726-7.726s3.459-7.726,7.726-7.726h6.431
						c4.267,0,7.727,3.459,7.727,7.726S450.674,134.093,446.406,134.093z"/>
				</g>
			</g>
		</g>
	</g>
	<g>
		<g>
			<path style="fill:#009E7A;" d="M1.038,221.966c-1.384,1.587-1.384,4.186,0,5.773c0,0,24.189,27.747,45.442,27.747
				c21.254,0,45.443-27.747,45.443-27.747c1.384-1.587,1.384-4.187,0-5.773c0,0-24.189-27.747-45.443-27.747
				S1.038,221.966,1.038,221.966z"/>
			<path style="opacity:0.1;" d="M91.847,221.881c-9.008,7.824-22.265,17.092-34.55,17.092c-20.573,0-43.895-25.996-45.367-27.662
				c-6.576,5.711-10.893,10.655-10.893,10.655c-1.384,1.587-1.384,4.186,0,5.773c0,0,24.189,27.747,45.442,27.747
				c21.254,0,45.443-27.747,45.443-27.747c1.384-1.587,1.384-4.187,0-5.773C91.924,221.966,91.896,221.936,91.847,221.881z"/>
		</g>
		<path style="fill:#1E8574;" d="M37.743,224.853c0,4.267,3.459,7.727,7.727,7.727h41.832c2.903-2.874,4.622-4.84,4.622-4.84
			c1.384-1.587,1.384-4.187,0-5.773c0,0-1.718-1.966-4.621-4.839H45.469C41.202,217.127,37.743,220.586,37.743,224.853z"/>
	</g>
	<g>
		<g>
			<path style="fill:#009E7A;" d="M129.129,161.216c1.992,1.992,3.857,4.095,5.609,6.267c7.408-8.903,15.403-21.15,15.403-32.556
				c0-21.248-27.753-45.432-27.753-45.432c-1.588-1.383-4.187-1.383-5.774,0c0,0-27.751,24.184-27.751,45.432
				c0,1.981,0.242,3.987,0.68,5.997C102.692,142.191,117.046,149.136,129.129,161.216z"/>
			<path style="opacity:0.1;" d="M106.037,145.293c-0.285-1.604-0.444-3.203-0.444-4.786c0-17.109,17.985-36.112,24.994-42.87
				c-4.6-4.999-8.199-8.141-8.199-8.141c-1.588-1.383-4.187-1.383-5.774,0c0,0-27.751,24.184-27.751,45.432
				c0,1.981,0.242,3.987,0.68,5.997C94.919,141.443,100.495,142.91,106.037,145.293z"/>
			<path style="fill:#1E8574;" d="M127.227,159.381l0-25.464c0-4.267-3.459-7.726-7.727-7.726c-4.267,0-7.726,3.459-7.726,7.726
				l-0.001,14.175C117.111,151.018,122.334,154.791,127.227,159.381z"/>
			<g>
				<path style="fill:#FF3D6C;" d="M138.5,164.673c-1.871-2.361-3.88-4.642-6.033-6.794c-22.211-22.206-52.107-27.106-68.065-11.154
					c-15.955,15.954-11.056,45.845,11.156,68.051c5.485,5.484,11.746,10.111,18.278,13.554
					C104.71,216.033,125.617,190.745,138.5,164.673z"/>
			</g>
		</g>
	</g>
	<g>
		<g style="opacity:0.1;">
			<path style="opacity:0.1;" d="M101.932,218.874c-1.531-1.312-3.034-2.664-4.468-4.098c-22.212-22.206-27.11-52.097-11.156-68.051
				c3.842-3.841,8.497-6.46,13.653-7.933c-13.677-3.316-26.746-0.879-35.56,7.933c-15.955,15.954-11.056,45.845,11.156,68.051
				c5.485,5.484,11.746,10.111,18.278,13.554C96.142,225.722,98.896,222.533,101.932,218.874z"/>
		</g>
		<g>
			<g>
				<path style="fill:#FF1B52;" d="M106.644,172.308c-2.03,0-4.018-0.824-5.46-2.256c-1.441-1.441-2.266-3.431-2.266-5.47
					c0-2.029,0.824-4.028,2.266-5.459c1.442-1.442,3.431-2.267,5.46-2.267c2.029,0,4.027,0.824,5.47,2.267
					c1.432,1.442,2.256,3.43,2.256,5.459c0,2.03-0.824,4.029-2.256,5.47C110.671,171.484,108.673,172.308,106.644,172.308z"/>
			</g>
			<g>
				<path style="fill:#FF1B52;" d="M82.269,196.682c-2.039,0-4.027-0.825-5.47-2.256c-1.433-1.442-2.256-3.431-2.256-5.461
					c0-2.039,0.823-4.027,2.256-5.47c1.442-1.432,3.431-2.256,5.47-2.256c2.03,0,4.019,0.825,5.46,2.256
					c1.433,1.443,2.256,3.431,2.256,5.47c0,2.03-0.823,4.018-2.256,5.461C86.288,195.857,84.3,196.682,82.269,196.682z"/>
			</g>
		</g>
		<g>
			<path style="fill:#FF1B52;" d="M80.58,170.629c-2.029,0-4.018-0.824-5.46-2.267c-1.441-1.432-2.266-3.42-2.266-5.46
				c0-2.029,0.824-4.028,2.266-5.459c1.442-1.443,3.431-2.267,5.46-2.267c2.04,0,4.028,0.824,5.471,2.267
				c1.432,1.442,2.256,3.43,2.256,5.459c0,2.04-0.824,4.028-2.256,5.46C84.608,169.804,82.62,170.629,80.58,170.629z"/>
		</g>
	</g>
	<path style="fill:#FBE24F;" d="M87.603,231.916l128.07-73.926c6.404-49.715-74.645-86.455-66.839-45.088
		c8.503,45.059-62.072,118.171-62.072,118.171L87.603,231.916z"/>
	<path style="fill:#FDF0A2;" d="M154.262,265l100.992-58.295c15.202-8.776,20.328-28.355,11.449-43.731
		c-8.88-15.376-28.401-20.728-43.603-11.952L76.97,235.372C66.186,241.597,60.484,253.258,61.246,265H154.262z"/>
	<path style="fill:#FBE24F;" d="M273.431,265l12.315-7.108c15.378-8.877,20.648-28.539,11.768-43.914
		c-8.88-15.379-28.545-20.646-43.924-11.77L144.81,265H273.431z"/>
	<g>
		<path style="fill:#FF4975;" d="M311.963,296.57v-18.231c0-8.756-7.164-15.92-15.92-15.92H55.699
			c-8.756,0-15.921,7.164-15.921,15.92v18.231H311.963z"/>
		<path style="opacity:0.1;" d="M90.256,262.419H55.699c-8.756,0-15.921,7.164-15.921,15.92v18.231h34.557v-18.231
			C74.335,269.583,81.499,262.419,90.256,262.419z"/>
	</g>
	<g>
		<path style="fill:#FF96B1;" d="M33.322,290.404c-2.833,0-4.192,2.11-3.02,4.689L98.2,444.471c1.173,2.579,4.449,4.689,7.282,4.689
			h21.942l-46.27-158.756H33.322z"/>
		<path style="fill:#FF96B1;" d="M318.418,290.404h-47.831L224.312,449.16h21.947c2.833,0,6.11-2.11,7.282-4.689l67.896-149.378
			C322.61,292.514,321.251,290.404,318.418,290.404z"/>
	</g>
	<path style="opacity:0.1;" d="M120.343,444.471L52.445,295.093c-1.172-2.579,0.187-4.689,3.02-4.689H33.322
		c-2.833,0-4.192,2.11-3.02,4.689L98.2,444.471c1.173,2.579,4.449,4.689,7.282,4.689h22.144
		C124.793,449.16,121.515,447.05,120.343,444.471z"/>
	<g>
		<polygon style="fill:#FFC0D0;" points="81.155,290.404 127.425,449.16 159.901,449.16 144.649,290.404 		"/>
		<polygon style="fill:#FFC0D0;" points="207.093,290.404 191.839,449.16 224.312,449.16 270.588,290.404 		"/>
	</g>
	<polygon style="fill:#FF96B1;" points="144.649,290.404 159.901,449.16 191.839,449.16 207.093,290.404 	"/>
</g>
<g>
</g>
<g>
</g>
<g>
</g>
<g>
</g>
<g>
</g>
<g>
</g>
<g>
</g>
<g>
</g>
<g>
</g>
<g>
</g>
<g>
</g>
<g>
</g>
<g>
</g>
<g>
</g>
<g>
</g>
</svg>
