<?xml version="1.0" encoding="iso-8859-1"?>
<!-- Generator: Adobe Illustrator 19.0.0, SVG Export Plug-In . SVG Version: 6.00 Build 0)  -->
<svg version="1.1" id="Layer_1" xmlns="http://www.w3.org/2000/svg" xmlns:xlink="http://www.w3.org/1999/xlink" x="0px" y="0px"
	 viewBox="0 0 512 512" style="enable-background:new 0 0 512 512;" xml:space="preserve">
<g>
	<g>
		<path style="fill:#19A9C1;" d="M30.17,471.647C13.534,471.647,0,458.051,0,441.34c0-13.957,9.581-25.928,22.627-29.321v-255.27
			c0-3.218,2.599-5.828,5.803-5.828h281.972c3.204,0,5.802,2.61,5.802,5.828v255.27c13.047,3.393,22.628,15.363,22.628,29.321
			c0,16.712-13.534,30.307-30.17,30.307H30.17z"/>
	</g>
	<g style="opacity:0.1;">
		<path d="M22.27,441.34c0-10.941,5.901-20.641,14.73-25.965v-0.022c1.481-0.892,3.04-1.675,4.685-2.305
			c1.935-0.741,3.212-2.598,3.212-4.669v-251.63c0-3.218,2.599-5.828,5.803-5.828H28.43c-3.204,0-5.803,2.61-5.803,5.828v255.27
			C9.581,415.412,0,427.382,0,441.34c0,16.712,13.534,30.307,30.17,30.307h22.271C35.805,471.647,22.27,458.051,22.27,441.34z"/>
	</g>
	<g>
		<ellipse style="fill:#FEFBF7;" cx="169.415" cy="310.203" rx="104.23" ry="104.705"/>
	</g>
	<path style="fill:#FFCB00;" d="M158.73,356v33.715c0,4.142,3.358,7.5,7.5,7.5c4.142,0,7.5-3.358,7.5-7.5V356H158.73z"/>
	<g style="opacity:0.1;">
		<path d="M87.717,310.203c0-54.003,40.698-98.451,92.964-104.094c-3.701-0.4-7.459-0.611-11.266-0.611
			c-57.565,0-104.23,46.877-104.23,104.705c0,57.827,46.665,104.705,104.23,104.705c3.807,0,7.564-0.21,11.266-0.61
			C128.415,408.654,87.717,364.205,87.717,310.203z"/>
	</g>
	<g>
		<g>
			<g>
				<path style="fill:#FAE4C8;" d="M311.272,138.179c-5.171-12.324-13.211-23.296-23.412-30.671l-74.952-54.184
					c-23.922-17.295-63.066-17.295-86.988,0l-74.952,54.184c-10.201,7.375-18.24,18.347-23.411,30.671H311.272z"/>
			</g>
		</g>
		<g style="opacity:0.1;">
			<path d="M84.707,107.508l74.952-54.184c7.649-5.53,16.857-9.283,26.624-11.277c-20.777-4.24-44.091-0.488-60.363,11.277
				l-74.952,54.184c-10.201,7.375-18.24,18.347-23.411,30.671h33.738C66.467,125.855,74.506,114.883,84.707,107.508z"/>
		</g>
		<g>
			<g>
				<path style="fill:#F6B245;" d="M142.11,82.97c-1.97,0-3.9-0.8-5.3-2.2c-1.4-1.4-2.2-3.33-2.2-5.3c0-1.98,0.8-3.91,2.2-5.3
					c1.4-1.4,3.329-2.2,5.3-2.2c1.98,0,3.91,0.8,5.31,2.2c1.39,1.39,2.19,3.32,2.19,5.3c0,1.97-0.8,3.91-2.19,5.3
					C146.02,82.17,144.09,82.97,142.11,82.97z"/>
			</g>
			<g>
				<path style="fill:#F6B245;" d="M169.41,103.81c-1.97,0-3.9-0.8-5.3-2.2c-1.4-1.39-2.2-3.33-2.2-5.3c0-1.97,0.8-3.9,2.2-5.3
					c1.4-1.4,3.33-2.2,5.3-2.2c1.98,0,3.91,0.8,5.31,2.2c1.39,1.39,2.2,3.33,2.2,5.3c0,1.97-0.81,3.91-2.2,5.3
					C173.32,103.01,171.39,103.81,169.41,103.81z"/>
			</g>
			<g>
				<path style="fill:#FEFBF7;" d="M196.72,82.97c-1.98,0-3.91-0.8-5.31-2.2c-1.39-1.39-2.19-3.33-2.19-5.3
					c0-1.98,0.8-3.91,2.19-5.31c1.4-1.39,3.33-2.19,5.31-2.19c1.97,0,3.9,0.8,5.3,2.19c1.4,1.4,2.2,3.33,2.2,5.31
					c0,1.97-0.8,3.91-2.2,5.3C200.62,82.17,198.69,82.97,196.72,82.97z"/>
			</g>
			<g>
				<path style="fill:#F6B245;" d="M224.02,103.81c-1.97,0-3.91-0.8-5.3-2.19c-1.4-1.4-2.2-3.34-2.2-5.31c0-1.97,0.8-3.9,2.2-5.3
					c1.39-1.4,3.33-2.2,5.3-2.2c1.97,0,3.91,0.8,5.3,2.2c1.4,1.4,2.2,3.33,2.2,5.3c0,1.97-0.8,3.91-2.2,5.31
					C227.93,103.01,225.99,103.81,224.02,103.81z"/>
			</g>
			<g>
				<path style="fill:#FEFBF7;" d="M114.81,103.81c-1.97,0-3.9-0.8-5.3-2.2c-1.4-1.39-2.2-3.32-2.2-5.3c0-1.97,0.8-3.91,2.2-5.3
					c1.4-1.4,3.33-2.2,5.3-2.2c1.98,0,3.91,0.8,5.31,2.2c1.39,1.39,2.19,3.33,2.19,5.3c0,1.98-0.8,3.91-2.19,5.3
					C118.72,103.01,116.79,103.81,114.81,103.81z"/>
			</g>
		</g>
	</g>
	<g>
		<g>
			<path style="fill:#3EB7CB;" d="M336.589,155.042c0,2.833-2.318,5.151-5.151,5.151H7.393c-2.833,0-5.151-2.318-5.151-5.151
				v-33.907c0-2.833,2.318-5.151,5.151-5.151h324.046c2.833,0,5.151,2.318,5.151,5.151V155.042z"/>
		</g>
		<g style="opacity:0.1;">
			<path d="M36.002,155.042v-33.907c0-2.833,2.318-5.151,5.151-5.151H7.393c-2.833,0-5.151,2.318-5.151,5.151v33.907
				c0,2.833,2.318,5.151,5.151,5.151h33.76C38.32,160.193,36.002,157.875,36.002,155.042z"/>
		</g>
	</g>
	<g>
		<path style="fill:#FAE4C8;" d="M287.489,471.647c-3.461,0-6.581-2.094-7.904-5.304c-1.323-3.212-0.591-6.908,1.855-9.367
			l77.079-77.429c9.816-9.859,22.938-15.289,36.949-15.289c14.011,0,27.134,5.43,36.949,15.29l77.079,77.428
			c2.446,2.459,3.179,6.155,1.854,9.367c-1.324,3.21-4.443,5.304-7.904,5.304H287.489z"/>
	</g>
	<g style="opacity:0.1;">
		<path d="M307.915,466.343c-1.323-3.212-0.592-6.908,1.855-9.367l77.079-77.429c6.408-6.437,14.23-10.97,22.784-13.353
			c-4.549-1.267-9.301-1.936-14.165-1.936c-14.011,0-27.133,5.43-36.949,15.289l-77.079,77.429
			c-2.446,2.459-3.178,6.155-1.855,9.367c1.324,3.21,4.444,5.304,7.904,5.304h28.33
			C312.358,471.647,309.238,469.553,307.915,466.343z"/>
	</g>
	<g>
		<path style="fill:#F6B245;" d="M337.614,419.53c-8.536-8.575-19.947-13.296-32.132-13.296c-12.184,0-23.596,4.721-32.132,13.295
			l-51.88,52.118h171.302L337.614,419.53z"/>
	</g>
	<g style="opacity:0.1;">
		<path d="M319.511,408.43c-4.467-1.438-9.184-2.196-14.029-2.196c-12.184,0-23.596,4.721-32.132,13.295l-51.88,52.118h28.058
			l51.88-52.118C306.55,414.364,312.74,410.609,319.511,408.43z"/>
	</g>
	<g>
		<path style="fill:#F6B245;" d="M396.85,402.21c-1.97,0-3.91-0.8-5.3-2.19c-1.4-1.4-2.2-3.33-2.2-5.31c0-1.97,0.8-3.9,2.2-5.3
			c1.39-1.4,3.32-2.2,5.3-2.2c1.98,0,3.91,0.8,5.3,2.2c1.4,1.4,2.2,3.33,2.2,5.3c0,1.98-0.8,3.91-2.2,5.31
			C400.76,401.41,398.82,402.21,396.85,402.21z"/>
	</g>
	<g>
		<path style="fill:#FEFBF7;" d="M424.7,424.36c-1.98,0-3.91-0.8-5.3-2.2c-1.4-1.39-2.2-3.33-2.2-5.3c0-1.97,0.8-3.91,2.2-5.3
			c1.39-1.4,3.32-2.2,5.3-2.2c1.97,0,3.91,0.8,5.3,2.2c1.4,1.39,2.2,3.32,2.2,5.3c0,1.98-0.8,3.91-2.2,5.3
			C428.61,423.56,426.67,424.36,424.7,424.36z"/>
	</g>
	<g>
		<path style="fill:#F6B245;" d="M452.55,441.85c-1.98,0-3.91-0.8-5.31-2.2c-1.39-1.4-2.19-3.33-2.19-5.3c0-1.98,0.8-3.91,2.19-5.31
			c1.4-1.39,3.33-2.19,5.31-2.19c1.97,0,3.91,0.8,5.3,2.19c1.4,1.4,2.2,3.33,2.2,5.31c0,1.97-0.8,3.9-2.2,5.3
			C456.46,441.05,454.52,441.85,452.55,441.85z"/>
	</g>
	<g>
		<path style="fill:#FEFBF7;" d="M378.28,424.36c-1.97,0-3.9-0.8-5.3-2.2c-1.4-1.39-2.2-3.33-2.2-5.3c0-1.97,0.8-3.91,2.2-5.3
			c1.4-1.4,3.33-2.2,5.3-2.2c1.98,0,3.91,0.8,5.31,2.2c1.39,1.39,2.19,3.329,2.19,5.3c0,1.97-0.8,3.91-2.19,5.3
			C382.19,423.56,380.26,424.36,378.28,424.36z"/>
	</g>
	<g>
		<path style="fill:#FAE4C8;" d="M304.02,439.52c-1.97,0-3.91-0.81-5.3-2.2c-1.4-1.4-2.2-3.33-2.2-5.3c0-1.98,0.8-3.91,2.2-5.31
			c1.39-1.39,3.32-2.2,5.3-2.2c1.97,0,3.91,0.81,5.3,2.2c1.4,1.4,2.2,3.33,2.2,5.31c0,1.97-0.8,3.9-2.2,5.3
			C307.92,438.71,305.99,439.52,304.02,439.52z"/>
	</g>
	<g>
		<path style="fill:#FEFBF7;" d="M333.03,452.34c-1.97,0-3.91-0.8-5.3-2.2c-1.4-1.4-2.2-3.329-2.2-5.3c0-1.98,0.8-3.91,2.2-5.31
			c1.39-1.39,3.33-2.19,5.3-2.19c1.97,0,3.91,0.8,5.3,2.19c1.4,1.4,2.2,3.33,2.2,5.31c0,1.97-0.8,3.9-2.2,5.3
			C336.94,451.54,335,452.34,333.03,452.34z"/>
	</g>
	<g>
		<path style="fill:#FEFBF7;" d="M277.33,452.34c-1.97,0-3.91-0.8-5.3-2.2c-1.4-1.4-2.2-3.329-2.2-5.3c0-1.98,0.8-3.91,2.2-5.31
			c1.39-1.39,3.33-2.19,5.3-2.19c1.97,0,3.91,0.8,5.31,2.19c1.39,1.4,2.19,3.33,2.19,5.31c0,1.97-0.8,3.9-2.19,5.3
			C281.24,451.54,279.3,452.34,277.33,452.34z"/>
	</g>
	<g>
		<path style="fill:#008DAF;" d="M91.175,130.589H2.242v15h88.934c4.142,0,7.5-3.358,7.5-7.5
			C98.675,133.947,95.317,130.589,91.175,130.589z"/>
	</g>
	<g>
		<path style="fill:#008DAF;" d="M336.589,130.589h-80.593c-4.142,0-7.5,3.358-7.5,7.5c0,4.142,3.358,7.5,7.5,7.5h80.593V130.589z"
			/>
	</g>
	<g>
		<g>
			<path style="fill:#299FBC;" d="M316.203,174.466h-17.837c-4.142,0-7.5,3.358-7.5,7.5c0,4.142,3.358,7.5,7.5,7.5h17.837V174.466z"
				/>
		</g>
		<g>
			<path style="fill:#299FBC;" d="M316.203,201.158h-17.837c-4.142,0-7.5,3.358-7.5,7.5c0,4.142,3.358,7.5,7.5,7.5h17.837V201.158z"
				/>
		</g>
		<g>
			<path style="fill:#299FBC;" d="M316.203,227.85h-17.837c-4.142,0-7.5,3.358-7.5,7.5c0,4.142,3.358,7.5,7.5,7.5h17.837V227.85z"/>
		</g>
		<g>
			<path style="fill:#299FBC;" d="M316.203,254.542h-17.837c-4.142,0-7.5,3.358-7.5,7.5c0,4.142,3.358,7.5,7.5,7.5h17.837V254.542z"
				/>
		</g>
	</g>
	<g>
		<path style="fill:#FFCB00;" d="M166.231,290c-0.53,0-1.059-0.123-1.543-0.373c-10.096-5.203-16.368-15.507-16.368-26.888
			c0-11.383,6.272-21.686,16.368-26.889c0.483-0.249,1.012-0.374,1.542-0.374c0.53,0,1.06,0.125,1.544,0.374
			c10.094,5.204,16.366,15.506,16.366,26.889c0.001,11.381-6.271,21.685-16.366,26.888C167.29,289.876,166.76,290,166.231,290z"/>
	</g>
	<g>
		<g>
			<path style="fill:#F6B142;" d="M169.007,304.641c-0.374,0.376-0.835,0.664-1.354,0.832c-10.802,3.492-22.488,0.662-30.499-7.388
				c-8.013-8.047-10.83-19.786-7.354-30.637c0.166-0.52,0.453-0.984,0.828-1.36c0.373-0.375,0.836-0.663,1.355-0.83
				c10.8-3.493,22.486-0.662,30.499,7.386c8.011,8.048,10.829,19.788,7.353,30.638C169.667,303.801,169.38,304.265,169.007,304.641z
				"/>
		</g>
		<g>
			<path style="fill:#F6B142;" d="M163.454,304.641c-0.374-0.375-0.661-0.839-0.828-1.359c-3.476-10.85-0.658-22.59,7.354-30.638
				c8.012-8.048,19.698-10.879,30.498-7.386c0.519,0.167,0.98,0.455,1.354,0.83c0.374,0.376,0.661,0.84,0.829,1.361
				c3.474,10.85,0.658,22.589-7.354,30.637c-8.012,8.049-19.699,10.879-30.5,7.387C164.289,305.304,163.827,305.018,163.454,304.641
				z"/>
		</g>
	</g>
	<g>
		<g>
			<path style="fill:#FFCB00;" d="M169.007,332.697c-0.374,0.376-0.835,0.664-1.354,0.832c-10.802,3.491-22.488,0.661-30.499-7.388
				c-8.013-8.048-10.83-19.787-7.354-30.637c0.166-0.521,0.453-0.985,0.828-1.361c0.373-0.375,0.836-0.664,1.355-0.831
				c10.8-3.492,22.486-0.662,30.499,7.386c8.011,8.049,10.829,19.789,7.353,30.639C169.667,331.858,169.38,332.322,169.007,332.697z
				"/>
		</g>
		<g>
			<path style="fill:#FFCB00;" d="M163.454,332.697c-0.374-0.375-0.661-0.839-0.828-1.359c-3.476-10.85-0.658-22.59,7.354-30.639
				c8.012-8.048,19.698-10.878,30.498-7.386c0.519,0.167,0.98,0.455,1.354,0.831c0.374,0.376,0.661,0.84,0.829,1.361
				c3.474,10.85,0.658,22.589-7.354,30.638c-8.012,8.048-19.699,10.878-30.5,7.387C164.289,333.361,163.827,333.075,163.454,332.697
				z"/>
		</g>
	</g>
	<g>
		<g>
			<path style="fill:#F6B142;" d="M169.007,360.855c-0.374,0.376-0.835,0.664-1.354,0.83c-10.802,3.492-22.488,0.662-30.499-7.387
				c-8.013-8.048-10.83-19.788-7.354-30.638c0.166-0.521,0.453-0.984,0.828-1.36c0.373-0.376,0.836-0.665,1.355-0.831
				c10.8-3.492,22.486-0.662,30.499,7.386c8.011,8.049,10.829,19.789,7.353,30.639C169.667,360.016,169.38,360.479,169.007,360.855z
				"/>
		</g>
		<g>
			<path style="fill:#F6B142;" d="M163.454,360.855c-0.374-0.376-0.661-0.839-0.828-1.36c-3.476-10.851-0.658-22.59,7.354-30.638
				c8.012-8.049,19.698-10.878,30.498-7.386c0.519,0.166,0.98,0.454,1.354,0.831c0.374,0.375,0.661,0.839,0.829,1.36
				c3.474,10.85,0.658,22.589-7.354,30.639c-8.012,8.048-19.699,10.877-30.5,7.385C164.289,361.519,163.827,361.232,163.454,360.855
				z"/>
		</g>
	</g>
</g>
<g>
</g>
<g>
</g>
<g>
</g>
<g>
</g>
<g>
</g>
<g>
</g>
<g>
</g>
<g>
</g>
<g>
</g>
<g>
</g>
<g>
</g>
<g>
</g>
<g>
</g>
<g>
</g>
<g>
</g>
</svg>
