<?xml version="1.0" ?><!DOCTYPE svg  PUBLIC '-//W3C//DTD SVG 1.1//EN'  'http://www.w3.org/Graphics/SVG/1.1/DTD/svg11.dtd'><svg enable-background="new 0 0 64 64" height="64px" id="GINGERBREAD_MAN" version="1.1" viewBox="0 0 64 64" width="64px" xml:space="preserve" xmlns="http://www.w3.org/2000/svg" xmlns:xlink="http://www.w3.org/1999/xlink"><g id="GINGERBREAD_MAN_1_"><path d="M39.226,48.71l-5.318-5.191c-0.031-0.03-0.064-0.059-0.099-0.085l-0.37-0.271   c-0.422-0.26-0.919-0.397-1.438-0.397s-1.016,0.138-1.513,0.448l-0.295,0.221c-0.034,0.026-0.067,0.055-0.099,0.085l-5.319,5.191   l-1.872,1.789c-0.717,0.609-1.606,0.955-2.555,0.955c-1.079,0-2.088-0.425-2.841-1.195c-1.527-1.568-1.497-4.087,0.068-5.614   l0.444-0.434l1.894-1.849l4.635-4.525c0.962-0.938,1.423-2.086,1.296-3.229c-0.123-1.119-0.789-2.104-1.897-2.789l-5.69-3.302   l-2.304-1.382c-1.426-1.054-1.877-3.027-0.966-4.597c0.628-1.085,1.799-1.759,3.055-1.759c0.618,0,1.229,0.165,1.767,0.478   l1.057,0.613l2.298,1.333l4.11,2.385c0.57,0.328,1.35,0.013,1.554-0.579c0.076-0.221,0.183-0.788-0.496-1.32   c-1.592-1.179-2.505-2.989-2.505-4.966c0-3.405,2.771-6.177,6.176-6.177s6.175,2.771,6.175,6.177c0,1.978-0.913,3.787-2.526,4.982   c-0.656,0.516-0.55,1.083-0.474,1.304c0.149,0.433,0.559,0.713,1.092,0.713c0.001,0,0.002,0,0.003,0   c0.162-0.007,0.319-0.053,0.459-0.134l4.109-2.384l2.298-1.333l1.058-0.614c0.538-0.313,1.148-0.478,1.766-0.478   c1.256,0,2.427,0.674,3.057,1.758c0.909,1.57,0.458,3.545-0.968,4.598l-2.305,1.382l-5.715,3.316   c-1.085,0.67-1.749,1.655-1.873,2.774c-0.126,1.144,0.334,2.29,1.296,3.229l4.636,4.524l1.894,1.849l0.445,0.435   c1.565,1.528,1.596,4.047,0.068,5.613c-0.754,0.771-1.764,1.196-2.842,1.196c-0.947,0-1.839-0.346-2.556-0.953L39.226,48.71z" fill="#D5944B"/><path d="M18.597,24.963c-0.266,1.277-1.39,2.16-2.644,2.172l2.304,1.382c1.142-0.648,2.011-1.764,2.299-3.147   c0.262-1.264,1.368-2.139,2.606-2.166l-2.298-1.333C19.742,22.515,18.88,23.597,18.597,24.963z" fill="#FFFFFF"/><path d="M43.446,25.369c0.288,1.384,1.157,2.499,2.298,3.147l2.305-1.382c-1.249-0.013-2.38-0.894-2.644-2.172   c-0.284-1.366-1.146-2.447-2.269-3.092l-2.298,1.333C42.079,23.231,43.185,24.106,43.446,25.369z" fill="#FFFFFF"/><path d="M41.335,48.776c0.328-0.649,0.89-1.133,1.582-1.36c1.545-0.51,2.65-1.746,3.064-3.206l-1.894-1.849   c0.284,1.343-0.467,2.718-1.796,3.155c-1.199,0.394-2.174,1.231-2.742,2.359c-0.137,0.27-0.242,0.55-0.324,0.834l1.872,1.791   C40.989,49.916,41.063,49.316,41.335,48.776z" fill="#FFFFFF"/><path d="M24.775,48.71c-0.081-0.284-0.187-0.563-0.322-0.833c-0.569-1.128-1.543-1.966-2.741-2.359   c-1.33-0.438-2.082-1.813-1.798-3.155l-1.894,1.849c0.414,1.46,1.521,2.696,3.065,3.206c0.691,0.227,1.253,0.71,1.581,1.36   c0.271,0.54,0.346,1.139,0.236,1.722L24.775,48.71z" fill="#FFFFFF"/><circle cx="29.461" cy="17.091" fill="#FFFFFF" r="1.4"/><circle cx="34.541" cy="17.09" fill="#FFFFFF" r="1.4"/><circle cx="32.001" cy="36.26" fill="#4DAF7C" r="2"/><circle cx="32.001" cy="29.87" fill="#4DAF7C" r="2"/><path d="M32.136,23.415l-0.135-0.001c-2.354-0.047-3.367-1.309-3.696-1.856c-0.285-0.474-0.133-1.088,0.341-1.372   c0.471-0.286,1.087-0.133,1.372,0.341c0.158,0.263,0.673,0.869,2.051,0.889c1.377-0.02,1.893-0.626,2.051-0.89   c0.284-0.474,0.897-0.626,1.373-0.34c0.473,0.285,0.625,0.9,0.34,1.373C35.502,22.106,34.486,23.367,32.136,23.415L32.136,23.415z" fill="#D64541"/><path d="M50.746,21.534c-0.986-1.699-2.82-2.755-4.786-2.755c-0.969,0-1.927,0.259-2.77,0.747l-2.979,1.729H40.21   l-0.359,0.209l0,0l-0.193,0.112c0.338-0.903,0.519-1.869,0.519-2.854c0-4.509-3.667-8.177-8.175-8.177s-8.176,3.668-8.176,8.177   c0,0.983,0.181,1.95,0.518,2.853l-0.413-0.24l-0.139-0.08l0,0l-2.979-1.729c-0.843-0.488-1.801-0.747-2.771-0.747   c-1.966,0-3.8,1.056-4.785,2.755c-1.497,2.581-0.663,5.877,1.843,7.452c0.04,0.026,0.08,0.054,0.122,0.079h0   c0.015,0.009,0.027,0.019,0.042,0.027l7.657,4.441c0.55,0.34,0.883,0.799,0.938,1.292c0.057,0.519-0.193,1.08-0.705,1.579   l-6.974,6.808c-2.354,2.298-2.399,6.084-0.102,8.443c1.133,1.159,2.65,1.798,4.272,1.798c1.566,0,3.047-0.603,4.168-1.697   l6.934-6.767l0.162-0.125c0.211-0.129,0.642-0.078,0.702-0.051l7.169,6.942c1.122,1.095,2.603,1.697,4.17,1.697   c1.622,0,3.139-0.639,4.272-1.799c2.298-2.356,2.252-6.144-0.103-8.442l-6.975-6.808c-0.512-0.499-0.762-1.061-0.704-1.579   c0.055-0.493,0.387-0.952,0.912-1.277l7.682-4.456c0.024-0.014,0.045-0.03,0.069-0.045c0.069-0.043,0.136-0.088,0.203-0.132l0,0   C51.431,27.315,52.221,24.078,50.746,21.534z M39.226,48.71l-5.318-5.191c-0.031-0.03-0.064-0.059-0.099-0.085l-0.37-0.271   c-0.422-0.26-0.919-0.397-1.438-0.397s-1.016,0.138-1.513,0.448l-0.295,0.221c-0.034,0.026-0.067,0.055-0.099,0.085l-5.319,5.191   l-1.872,1.789c-0.717,0.609-1.606,0.955-2.555,0.955c-1.079,0-2.088-0.425-2.841-1.195c-1.527-1.568-1.497-4.087,0.068-5.614   l0.444-0.434l1.894-1.849l4.635-4.525c0.962-0.938,1.423-2.086,1.296-3.229c-0.123-1.119-0.789-2.104-1.897-2.789l-5.69-3.302   l-2.304-1.382c-1.426-1.054-1.877-3.027-0.966-4.597c0.628-1.085,1.799-1.759,3.055-1.759c0.618,0,1.229,0.165,1.767,0.478   l1.057,0.613l2.298,1.333l4.11,2.385c0.57,0.328,1.35,0.013,1.554-0.579c0.076-0.221,0.183-0.788-0.496-1.32   c-1.592-1.179-2.505-2.989-2.505-4.966c0-3.405,2.771-6.177,6.176-6.177s6.175,2.771,6.175,6.177c0,1.978-0.913,3.787-2.526,4.982   c-0.656,0.516-0.55,1.083-0.474,1.304c0.149,0.433,0.559,0.713,1.092,0.713c0.001,0,0.002,0,0.003,0   c0.162-0.007,0.319-0.053,0.459-0.134l4.109-2.384l2.298-1.333l1.058-0.614c0.538-0.313,1.148-0.478,1.766-0.478   c1.256,0,2.427,0.674,3.057,1.758c0.909,1.57,0.458,3.545-0.968,4.598l-2.305,1.382l-5.715,3.316   c-1.085,0.67-1.749,1.655-1.873,2.774c-0.126,1.144,0.334,2.29,1.296,3.229l4.636,4.524l1.894,1.849l0.445,0.435   c1.565,1.528,1.596,4.047,0.068,5.613c-0.754,0.771-1.764,1.196-2.842,1.196c-0.947,0-1.839-0.346-2.556-0.953L39.226,48.71z" fill="#26251D"/></g></svg>