<?xml version="1.0" encoding="iso-8859-1"?>
<!-- Generator: Adobe Illustrator 19.0.0, SVG Export Plug-In . SVG Version: 6.00 Build 0)  -->
<svg version="1.1" id="Layer_1" xmlns="http://www.w3.org/2000/svg" xmlns:xlink="http://www.w3.org/1999/xlink" x="0px" y="0px"
	 viewBox="0 0 512 512" style="enable-background:new 0 0 512 512;" xml:space="preserve">
<g>
	<path style="fill:#4CCE87;" d="M353.553,114.089c0,11.533-9.423,20.883-21.049,20.883H179.496c-11.626,0-21.049-9.35-21.049-20.883
		l0,0c0-11.533,9.423-20.882,21.049-20.882h153.008C344.13,93.207,353.553,102.556,353.553,114.089L353.553,114.089z"/>
	<path style="opacity:0.1;" d="M186.662,114.09c0-11.533,9.425-20.883,21.047-20.883h-28.214c-11.623,0-21.048,9.35-21.048,20.883
		c0,11.535,9.425,20.883,21.048,20.883h28.214C196.087,134.974,186.662,125.625,186.662,114.09z"/>
	<path style="fill:#A4E6C2;" d="M356.647,131.402c1.823,0,3.3,1.462,3.3,3.266v8.595c0,22.912-18.83,41.554-41.978,41.554H194.032
		c-23.149,0-41.979-18.642-41.979-41.554v-8.595c0-1.804,1.477-3.266,3.297-3.266H356.647z"/>
	<path style="fill:#A4E6C2;" d="M348.494,101.825c-3.662,0-7.019-1.662-9.209-4.559c-0.251-0.333-0.651-0.531-1.07-0.531
		c-0.417,0-0.816,0.198-1.068,0.531c-2.19,2.896-5.545,4.559-9.207,4.559c-3.663,0-7.017-1.662-9.208-4.559
		c-0.252-0.333-0.651-0.531-1.069-0.531s-0.818,0.198-1.069,0.531c-2.19,2.896-5.547,4.559-9.208,4.559
		c-3.659,0-7.018-1.662-9.208-4.559c-0.249-0.333-0.65-0.531-1.068-0.531c-0.419,0-0.817,0.198-1.069,0.531
		c-2.191,2.896-5.546,4.559-9.207,4.559c-3.663,0-7.021-1.662-9.209-4.559c-0.252-0.333-0.651-0.531-1.069-0.531
		s-0.818,0.198-1.069,0.531c-2.19,2.896-5.546,4.559-9.208,4.559c-3.663,0-7.019-1.662-9.208-4.559
		c-0.25-0.333-0.65-0.531-1.068-0.531s-0.818,0.198-1.068,0.531c-2.189,2.896-5.547,4.559-9.209,4.559
		c-3.661,0-7.019-1.662-9.209-4.559c-0.249-0.333-0.649-0.531-1.067-0.531c-0.42,0-0.819,0.198-1.07,0.531
		c-2.191,2.896-5.545,4.559-9.208,4.559c-3.661,0-7.018-1.662-9.207-4.559c-0.252-0.333-0.65-0.531-1.069-0.531
		c-0.418,0-0.819,0.198-1.068,0.531c-2.19,2.896-5.549,4.559-9.21,4.559c-3.66,0-7.017-1.662-9.206-4.559
		c-0.251-0.333-0.65-0.531-1.069-0.531c-0.418,0-0.818,0.198-1.069,0.531c-2.191,2.896-5.547,4.559-9.208,4.559
		c-3.662,0-7.018-1.662-9.206-4.559c-0.253-0.333-0.652-0.531-1.073-0.531c-0.417,0-0.815,0.198-1.067,0.531
		c-2.189,2.896-5.547,4.559-9.208,4.559c-6.316,0-11.453-5.021-11.453-11.194V73.195c0-22.531,18.475-40.861,41.182-40.861h125.529
		c22.709,0,41.184,18.33,41.184,40.861v17.436C359.947,96.804,354.809,101.825,348.494,101.825z"/>
	<g style="opacity:0.1;">
		<path d="M180.054,73.195c0-22.532,18.474-40.861,41.183-40.861h-28.001c-22.709,0-41.183,18.329-41.183,40.861v17.437
			c0,6.172,5.138,11.193,11.453,11.193c3.662,0,7.018-1.661,9.208-4.559c0.251-0.332,0.652-0.53,1.069-0.53
			c0.418,0,0.818,0.198,1.068,0.53c1.355,1.793,3.158,3.108,5.202,3.854V73.195z"/>
	</g>
	<path style="fill:#FAE4C8;" d="M436.544,262.185c0,11.534-9.425,20.883-21.047,20.883H262.484
		c-11.621,0-21.046-9.349-21.046-20.883l0,0c0-11.533,9.425-20.883,21.046-20.883h153.013
		C427.119,241.302,436.544,250.652,436.544,262.185L436.544,262.185z"/>
	<path style="fill:#71C77A;" d="M439.641,279.498c1.82,0,3.298,1.462,3.298,3.265v8.595c0,22.914-18.831,41.553-41.979,41.553
		H277.023c-23.148,0-41.98-18.64-41.98-41.553v-8.595c0-1.803,1.477-3.265,3.297-3.265H439.641z"/>
	<path style="fill:#71C77A;" d="M431.484,249.919c-3.661,0-7.017-1.661-9.208-4.558c-0.251-0.332-0.65-0.53-1.068-0.53
		s-0.818,0.198-1.069,0.53c-2.191,2.898-5.547,4.558-9.208,4.558c-3.661,0-7.019-1.661-9.207-4.558
		c-0.252-0.332-0.652-0.53-1.071-0.53c-0.418,0-0.817,0.198-1.066,0.53c-2.192,2.898-5.548,4.558-9.209,4.558
		c-3.663,0-7.018-1.661-9.209-4.558c-0.25-0.332-0.65-0.53-1.069-0.53c-0.418,0-0.818,0.198-1.068,0.53
		c-2.19,2.898-5.546,4.558-9.208,4.558s-7.019-1.661-9.208-4.558c-0.251-0.331-0.65-0.529-1.069-0.529
		c-0.418,0-0.817,0.197-1.069,0.529c-2.188,2.898-5.546,4.558-9.207,4.558c-3.663,0-7.019-1.661-9.208-4.558
		c-0.252-0.332-0.65-0.53-1.068-0.53c-0.42,0-0.819,0.198-1.069,0.53c-2.191,2.898-5.547,4.558-9.21,4.558
		c-3.66,0-7.017-1.661-9.208-4.558c-0.25-0.332-0.649-0.529-1.069-0.529c-0.416,0-0.816,0.198-1.067,0.53
		c-2.19,2.896-5.546,4.557-9.209,4.557c-3.66,0-7.018-1.661-9.208-4.558c-0.25-0.332-0.65-0.53-1.068-0.53
		c-0.419,0-0.819,0.198-1.069,0.53c-2.19,2.898-5.547,4.558-9.208,4.558c-3.662,0-7.018-1.661-9.207-4.558
		c-0.252-0.332-0.651-0.53-1.07-0.53c-0.418,0-0.817,0.198-1.068,0.53c-2.19,2.898-5.547,4.558-9.207,4.558
		c-3.662,0-7.018-1.661-9.209-4.558c-0.251-0.332-0.65-0.53-1.069-0.53c-0.417,0-0.817,0.198-1.069,0.53
		c-2.189,2.898-5.546,4.558-9.208,4.558c-6.316,0-11.453-5.021-11.453-11.193V221.29c0-22.532,18.474-40.861,41.184-40.861h125.527
		c22.708,0,41.182,18.329,41.182,40.861l0.001,17.437C442.938,244.898,437.8,249.919,431.484,249.919z"/>
	<path style="fill:#FF7697;" d="M282.385,262.185c0,11.534-9.424,20.883-21.047,20.883H108.327
		c-11.623,0-21.048-9.349-21.048-20.883l0,0c0-11.533,9.425-20.883,21.048-20.883h153.011
		C272.961,241.302,282.385,250.652,282.385,262.185L282.385,262.185z"/>
	<path style="opacity:0.1;" d="M115.494,262.185c0-11.533,9.424-20.883,21.047-20.883h-28.214c-11.623,0-21.048,9.35-21.048,20.883
		c0,11.534,9.425,20.883,21.048,20.883h28.214C124.918,283.068,115.494,273.719,115.494,262.185z"/>
	<path style="fill:#FF96B1;" d="M285.482,279.498c1.82,0,3.297,1.462,3.297,3.265v8.595c0,22.914-18.831,41.553-41.979,41.553
		H122.864c-23.146,0-41.979-18.64-41.979-41.553v-8.595c0-1.803,1.476-3.265,3.299-3.265H285.482z"/>
	<path style="opacity:0.1;" d="M114.865,291.358v-8.595c0-1.803,1.476-3.265,3.298-3.265H84.184c-1.822,0-3.299,1.462-3.299,3.265
		v8.595c0,22.914,18.834,41.553,41.979,41.553h33.979C133.698,332.911,114.865,314.272,114.865,291.358z"/>
	<path style="opacity:0.1;" d="M186.032,143.263v-8.596c0-1.803,1.476-3.265,3.298-3.265h-33.98c-1.821,0-3.297,1.462-3.297,3.265
		v8.596c0,22.913,18.832,41.553,41.979,41.553h33.979C204.865,184.816,186.032,166.176,186.032,143.263z"/>
	<path style="fill:#FF96B1;" d="M277.325,249.919c-3.661,0-7.017-1.661-9.206-4.558c-0.253-0.332-0.651-0.53-1.07-0.53
		c-0.418,0-0.818,0.198-1.069,0.53c-2.189,2.898-5.547,4.558-9.208,4.558c-3.661,0-7.017-1.661-9.207-4.558
		c-0.251-0.332-0.652-0.53-1.07-0.53c-0.418,0-0.818,0.198-1.067,0.53c-2.192,2.898-5.548,4.558-9.208,4.558
		c-3.661,0-7.019-1.661-9.209-4.558c-0.251-0.332-0.65-0.53-1.07-0.53c-0.417,0-0.816,0.198-1.067,0.53
		c-2.191,2.898-5.547,4.558-9.209,4.558s-7.019-1.661-9.207-4.558c-0.251-0.331-0.651-0.529-1.068-0.529
		c-0.419,0-0.818,0.197-1.071,0.529c-2.188,2.898-5.545,4.558-9.207,4.558c-3.662,0-7.019-1.661-9.207-4.558
		c-0.252-0.332-0.65-0.53-1.069-0.53c-0.42,0-0.819,0.198-1.068,0.53c-2.191,2.898-5.548,4.558-9.21,4.558
		c-3.661,0-7.017-1.661-9.209-4.558c-0.25-0.332-0.648-0.529-1.068-0.529c-0.417,0-0.817,0.198-1.068,0.53
		c-2.189,2.896-5.546,4.557-9.208,4.557c-3.661,0-7.017-1.661-9.207-4.558c-0.252-0.332-0.652-0.53-1.069-0.53
		c-0.419,0-0.819,0.198-1.068,0.53c-2.191,2.898-5.549,4.558-9.209,4.558c-3.66,0-7.019-1.661-9.208-4.558
		c-0.251-0.332-0.65-0.53-1.07-0.53c-0.417,0-0.817,0.198-1.068,0.53c-2.19,2.898-5.546,4.558-9.207,4.558
		c-3.662,0-7.019-1.661-9.208-4.558c-0.251-0.332-0.651-0.53-1.07-0.53c-0.416,0-0.817,0.198-1.068,0.53
		c-2.189,2.898-5.546,4.558-9.208,4.558c-6.315,0-11.454-5.021-11.454-11.193V221.29c0-22.532,18.475-40.861,41.184-40.861h125.527
		c22.71,0,41.183,18.329,41.183,40.861l0.001,17.437C288.779,244.898,283.641,249.919,277.325,249.919z"/>
	<g style="opacity:0.1;">
		<path d="M108.887,221.29c0-22.532,18.474-40.861,41.183-40.861h-28.001c-22.709,0-41.184,18.329-41.184,40.861v17.437
			c0,6.172,5.139,11.193,11.454,11.193c3.662,0,7.019-1.661,9.208-4.558c0.251-0.332,0.652-0.53,1.068-0.53
			c0.419,0,0.819,0.198,1.07,0.53c1.354,1.792,3.157,3.108,5.201,3.854V221.29z"/>
	</g>
	<path style="fill:#F6B142;" d="M201.5,408.747c0,11.534-9.424,20.884-21.047,20.884H27.44c-11.622,0-21.046-9.35-21.046-20.884l0,0
		c0-11.533,9.424-20.883,21.046-20.883h153.013C192.076,387.863,201.5,397.213,201.5,408.747L201.5,408.747z"/>
	<path style="opacity:0.1;" d="M34.608,408.747c0-11.533,9.425-20.883,21.048-20.883H27.441c-11.623,0-21.047,9.35-21.047,20.883
		c0,11.534,9.424,20.883,21.047,20.883h28.215C44.033,429.63,34.608,420.281,34.608,408.747z"/>
	<path style="fill:#7F332D;" d="M204.597,426.252c1.821,0,3.298,1.463,3.298,3.266v8.595c0,22.913-18.831,41.553-41.98,41.553
		H41.979C18.833,479.666,0,461.025,0,438.113v-8.595c0-1.803,1.477-3.266,3.298-3.266H204.597z"/>
	<path style="opacity:0.1;" d="M33.979,438.113v-8.596c0-1.803,1.477-3.265,3.298-3.265H3.298c-1.822,0-3.298,1.462-3.298,3.265
		v8.596c0,22.914,18.833,41.553,41.979,41.553h33.98C52.813,479.666,33.979,461.026,33.979,438.113z"/>
	<path style="fill:#7F332D;" d="M196.439,396.675c-3.661,0-7.016-1.662-9.207-4.559c-0.251-0.332-0.65-0.53-1.069-0.53
		c-0.418,0-0.818,0.198-1.068,0.53c-2.19,2.898-5.547,4.559-9.208,4.559c-3.661,0-7.019-1.662-9.208-4.559
		c-0.25-0.332-0.65-0.53-1.069-0.53c-0.419,0-0.818,0.198-1.069,0.53c-2.19,2.898-5.546,4.559-9.207,4.559
		c-3.663,0-7.018-1.662-9.208-4.559c-0.252-0.332-0.652-0.53-1.07-0.53s-0.818,0.198-1.068,0.53
		c-2.19,2.898-5.547,4.559-9.209,4.559c-3.662,0-7.017-1.662-9.208-4.559c-0.251-0.331-0.649-0.529-1.067-0.529
		c-0.418,0-0.818,0.197-1.069,0.529c-2.189,2.898-5.548,4.559-9.208,4.559c-3.663,0-7.02-1.662-9.209-4.559
		c-0.25-0.332-0.65-0.53-1.068-0.53c-0.418,0-0.818,0.198-1.068,0.53c-2.191,2.898-5.547,4.559-9.209,4.559
		s-7.018-1.662-9.208-4.559c-0.252-0.332-0.65-0.529-1.069-0.529c-0.418,0-0.818,0.198-1.068,0.53
		c-2.19,2.897-5.547,4.558-9.21,4.558c-3.66,0-7.017-1.662-9.206-4.559c-0.251-0.332-0.65-0.53-1.069-0.53
		c-0.418,0-0.818,0.198-1.069,0.53c-2.19,2.898-5.547,4.559-9.208,4.559c-3.661,0-7.019-1.662-9.206-4.559
		c-0.253-0.332-0.652-0.53-1.072-0.53c-0.417,0-0.816,0.198-1.068,0.53c-2.189,2.898-5.547,4.559-9.207,4.559
		c-3.662,0-7.017-1.662-9.208-4.559c-0.252-0.332-0.651-0.53-1.069-0.53c-0.418,0-0.818,0.198-1.068,0.53
		c-2.19,2.898-5.548,4.559-9.208,4.559C5.138,396.675,0,391.653,0,385.481v-17.437c0-22.53,18.474-40.861,41.182-40.861H166.71
		c22.711,0,41.184,18.331,41.184,40.861v17.437C207.894,391.653,202.756,396.675,196.439,396.675z"/>
	<g style="opacity:0.1;">
		<path d="M28.001,368.045c0-22.532,18.474-40.861,41.183-40.861h-28C18.474,327.184,0,345.513,0,368.045v17.437
			c0,6.172,5.138,11.193,11.454,11.193c3.661,0,7.018-1.661,9.208-4.558c0.25-0.332,0.651-0.53,1.068-0.53
			c0.418,0,0.818,0.198,1.069,0.53c1.355,1.793,3.158,3.108,5.201,3.854V368.045z"/>
	</g>
	<path style="fill:#7F332D;" d="M505.605,408.94c0,11.534-9.424,20.884-21.048,20.884h-153.01c-11.624,0-21.048-9.35-21.048-20.884
		l0,0c0-11.533,9.424-20.883,21.048-20.883h153.01C496.182,388.056,505.605,397.406,505.605,408.94L505.605,408.94z"/>
	<path style="fill:#F6B142;" d="M508.702,426.252c1.821,0,3.298,1.463,3.298,3.266v8.595c0,22.913-18.831,41.553-41.978,41.553
		H346.086c-23.149,0-41.979-18.641-41.979-41.553v-8.595c0-1.803,1.476-3.266,3.297-3.266H508.702z"/>
	<path style="fill:#F6B142;" d="M500.546,396.675c-3.661,0-7.018-1.662-9.208-4.558c-0.252-0.333-0.65-0.531-1.069-0.531
		c-0.419,0-0.817,0.198-1.068,0.53c-2.191,2.898-5.546,4.559-9.207,4.559c-3.663,0-7.019-1.662-9.208-4.558
		c-0.252-0.333-0.652-0.531-1.071-0.531c-0.417,0-0.816,0.198-1.069,0.53c-2.189,2.898-5.545,4.559-9.208,4.559
		c-3.659,0-7.016-1.662-9.206-4.558c-0.251-0.333-0.651-0.531-1.069-0.531c-0.418,0-0.818,0.198-1.069,0.53
		c-2.19,2.898-5.547,4.559-9.207,4.559c-3.662,0-7.02-1.662-9.209-4.558c-0.251-0.332-0.65-0.531-1.068-0.531
		c-0.419,0-0.817,0.198-1.069,0.531c-2.191,2.897-5.546,4.558-9.208,4.558c-3.664,0-7.019-1.662-9.208-4.558
		c-0.252-0.333-0.651-0.531-1.069-0.531c-0.418,0-0.818,0.198-1.068,0.53c-2.19,2.898-5.547,4.559-9.209,4.559
		c-3.661,0-7.019-1.662-9.209-4.559c-0.25-0.332-0.65-0.53-1.067-0.53c-0.421,0-0.819,0.199-1.07,0.531
		c-2.189,2.897-5.546,4.558-9.207,4.558c-3.661,0-7.019-1.662-9.208-4.558c-0.25-0.333-0.65-0.531-1.068-0.531
		s-0.82,0.198-1.07,0.53c-2.19,2.898-5.547,4.559-9.208,4.559s-7.017-1.662-9.207-4.558c-0.252-0.333-0.65-0.531-1.069-0.531
		c-0.419,0-0.819,0.198-1.068,0.53c-2.19,2.898-5.549,4.559-9.21,4.559c-3.659,0-7.017-1.662-9.206-4.558
		c-0.251-0.333-0.651-0.531-1.07-0.531c-0.418,0-0.818,0.198-1.068,0.53c-2.191,2.898-5.547,4.559-9.208,4.559
		c-6.316,0-11.453-5.022-11.453-11.194v-17.437c0-22.53,18.473-40.861,41.182-40.861h125.528c22.709,0,41.184,18.331,41.184,40.861
		v17.437C512,391.653,506.861,396.675,500.546,396.675z"/>
	<g>
		<g>
			<path style="fill:#7F332D;" d="M411.684,352.585h-7.896c-4.143,0-7.5-3.358-7.5-7.5s3.357-7.5,7.5-7.5h7.896
				c4.143,0,7.5,3.358,7.5,7.5S415.826,352.585,411.684,352.585z"/>
		</g>
		<g>
			<path style="fill:#7F332D;" d="M467.767,364.338h-7.899c-4.143,0-7.5-3.358-7.5-7.5c0-4.142,3.357-7.5,7.5-7.5h7.899
				c4.143,0,7.5,3.358,7.5,7.5C475.267,360.98,471.909,364.338,467.767,364.338z"/>
		</g>
		<g>
			<path style="fill:#7F332D;" d="M434.592,379.227h-7.899c-4.143,0-7.5-3.358-7.5-7.5c0-4.142,3.357-7.5,7.5-7.5h7.899
				c4.143,0,7.5,3.358,7.5,7.5C442.092,375.869,438.734,379.227,434.592,379.227z"/>
		</g>
		<g>
			<path style="fill:#7F332D;" d="M384.829,379.227h-7.899c-4.143,0-7.5-3.358-7.5-7.5c0-4.142,3.357-7.5,7.5-7.5h7.899
				c4.143,0,7.5,3.358,7.5,7.5C392.329,375.869,388.972,379.227,384.829,379.227z"/>
		</g>
		<path style="fill:#7F332D;" d="M512,376.781v-8.737c0-0.474-0.02-0.942-0.036-1.412c-1.37-1.476-3.32-2.405-5.493-2.405h-7.899
			c-4.143,0-7.5,3.358-7.5,7.5c0,4.142,3.357,7.5,7.5,7.5h7.899C508.663,379.227,510.629,378.28,512,376.781z"/>
		<g>
			<path style="fill:#7F332D;" d="M467.767,450.531h-7.899c-4.143,0-7.5-3.358-7.5-7.5c0-4.142,3.357-7.5,7.5-7.5h7.899
				c4.143,0,7.5,3.358,7.5,7.5C475.267,447.173,471.909,450.531,467.767,450.531z"/>
		</g>
		<g>
			<path style="fill:#7F332D;" d="M434.592,465.419h-7.899c-4.143,0-7.5-3.358-7.5-7.5s3.357-7.5,7.5-7.5h7.899
				c4.143,0,7.5,3.358,7.5,7.5S438.734,465.419,434.592,465.419z"/>
		</g>
		<g>
			<path style="fill:#7F332D;" d="M384.829,465.419h-7.899c-4.143,0-7.5-3.358-7.5-7.5s3.357-7.5,7.5-7.5h7.899
				c4.143,0,7.5,3.358,7.5,7.5S388.972,465.419,384.829,465.419z"/>
		</g>
		<path style="fill:#7F332D;" d="M508.846,453.898c-1.332-2.089-3.663-3.478-6.324-3.478h-7.899c-4.143,0-7.5,3.358-7.5,7.5
			s3.357,7.5,7.5,7.5h7.001C504.626,462.019,507.08,458.136,508.846,453.898z"/>
	</g>
	<path style="fill:#FEFBF7;" d="M352.52,408.94c0,11.534-9.425,20.884-21.049,20.884h-153.01c-11.624,0-21.048-9.35-21.048-20.884
		l0,0c0-11.533,9.424-20.883,21.048-20.883h153.01C343.095,388.056,352.52,397.406,352.52,408.94L352.52,408.94z"/>
	<path style="opacity:0.1;" d="M185.628,408.94c0-11.533,9.425-20.883,21.047-20.883h-28.214c-11.623,0-21.048,9.35-21.048,20.883
		c0,11.534,9.425,20.883,21.048,20.883h28.214C195.053,429.823,185.628,420.474,185.628,408.94z"/>
	<path style="fill:#FBE24F;" d="M355.614,426.252c1.822,0,3.299,1.462,3.299,3.266v8.595c0,22.913-18.831,41.553-41.978,41.553
		H192.998c-23.148,0-41.98-18.641-41.98-41.553v-8.595c0-1.804,1.478-3.266,3.299-3.266H355.614z"/>
	<path style="opacity:0.1;" d="M184.998,438.113v-8.596c0-1.803,1.476-3.265,3.298-3.265h-33.979c-1.822,0-3.299,1.462-3.299,3.265
		v8.596c0,22.914,18.834,41.553,41.98,41.553h33.979C203.831,479.666,184.998,461.026,184.998,438.113z"/>
	<path style="fill:#FBE24F;" d="M347.459,396.675c-3.661,0-7.019-1.662-9.207-4.559c-0.252-0.332-0.65-0.53-1.07-0.53
		c-0.417,0-0.817,0.198-1.069,0.53c-2.189,2.898-5.546,4.559-9.207,4.559c-3.662,0-7.018-1.662-9.207-4.559
		c-0.252-0.332-0.652-0.53-1.069-0.53c-0.419,0-0.819,0.198-1.069,0.53c-2.191,2.898-5.547,4.559-9.21,4.559
		c-3.659,0-7.016-1.662-9.207-4.559c-0.25-0.332-0.649-0.53-1.068-0.53c-0.418,0-0.818,0.198-1.069,0.53
		c-2.19,2.898-5.547,4.559-9.208,4.559c-3.662,0-7.019-1.662-9.208-4.559c-0.251-0.331-0.651-0.53-1.069-0.53
		c-0.417,0-0.817,0.198-1.068,0.53c-2.191,2.898-5.546,4.559-9.208,4.559c-3.664,0-7.019-1.662-9.209-4.559
		c-0.251-0.332-0.649-0.53-1.068-0.53c-0.419,0-0.817,0.198-1.068,0.53c-2.191,2.898-5.548,4.559-9.209,4.559
		c-3.662,0-7.019-1.662-9.209-4.559c-0.249-0.332-0.65-0.53-1.068-0.53c-0.418,0-0.818,0.199-1.069,0.531
		c-2.188,2.897-5.545,4.558-9.207,4.558c-3.661,0-7.018-1.662-9.207-4.559c-0.253-0.332-0.652-0.53-1.069-0.53
		c-0.42,0-0.819,0.198-1.068,0.53c-2.192,2.898-5.549,4.559-9.211,4.559c-3.659,0-7.016-1.662-9.207-4.559
		c-0.251-0.332-0.65-0.53-1.068-0.53c-0.419,0-0.819,0.198-1.069,0.53c-2.189,2.898-5.547,4.559-9.208,4.559
		c-3.661,0-7.019-1.662-9.208-4.559c-0.251-0.332-0.651-0.53-1.07-0.53c-0.418,0-0.816,0.198-1.067,0.53
		c-2.191,2.898-5.547,4.559-9.208,4.559c-6.316,0-11.455-5.022-11.455-11.195v-17.436c0-22.53,18.476-40.861,41.184-40.861h125.528
		c22.709,0,41.183,18.331,41.183,40.861l0.001,17.436C358.913,391.653,353.774,396.675,347.459,396.675z"/>
	<g style="opacity:0.1;">
		<path d="M179.02,368.045c0-22.532,18.474-40.861,41.183-40.861h-28.001c-22.709,0-41.184,18.329-41.184,40.861v17.437
			c0,6.172,5.139,11.193,11.454,11.193c3.662,0,7.019-1.661,9.208-4.558c0.251-0.332,0.652-0.53,1.068-0.53
			c0.419,0,0.819,0.198,1.07,0.53c1.354,1.793,3.157,3.108,5.201,3.854V368.045z"/>
	</g>
	<g>
		<g>
			<path style="fill:#4CCE87;" d="M196.44,155.681h-7.898c-4.143,0-7.5-3.358-7.5-7.5c0-4.142,3.357-7.5,7.5-7.5h7.898
				c4.143,0,7.5,3.358,7.5,7.5C203.94,152.323,200.583,155.681,196.44,155.681z"/>
		</g>
		<g>
			<path style="fill:#4CCE87;" d="M315.713,155.681h-7.898c-4.143,0-7.5-3.358-7.5-7.5c0-4.142,3.357-7.5,7.5-7.5h7.898
				c4.143,0,7.5,3.358,7.5,7.5C323.213,152.323,319.855,155.681,315.713,155.681z"/>
		</g>
		<g>
			<path style="fill:#4CCE87;" d="M282.538,170.569h-7.899c-4.143,0-7.5-3.358-7.5-7.5c0-4.142,3.357-7.5,7.5-7.5h7.899
				c4.143,0,7.5,3.358,7.5,7.5C290.038,167.211,286.681,170.569,282.538,170.569z"/>
		</g>
		<g>
			<path style="fill:#4CCE87;" d="M232.775,170.569h-7.898c-4.143,0-7.5-3.358-7.5-7.5c0-4.142,3.357-7.5,7.5-7.5h7.898
				c4.143,0,7.5,3.358,7.5,7.5C240.275,167.211,236.918,170.569,232.775,170.569z"/>
		</g>
		<path style="fill:#4CCE87;" d="M356.793,159.048c-1.332-2.089-3.663-3.479-6.324-3.479h-7.9c-4.143,0-7.5,3.358-7.5,7.5
			c0,4.142,3.357,7.5,7.5,7.5h7.002C352.573,167.169,355.027,163.285,356.793,159.048z"/>
		<path style="fill:#4CCE87;" d="M172.744,155.569h-7.899c-4.143,0-7.5,3.358-7.5,7.5c0,0.133,0.013,0.262,0.02,0.394
			c1.307,2.313,2.827,4.492,4.54,6.507c0.903,0.386,1.896,0.6,2.94,0.6h7.899c4.143,0,7.5-3.358,7.5-7.5
			C180.244,158.927,176.887,155.569,172.744,155.569z"/>
		<g>
			<g>
				<path style="fill:#4CCE87;" d="M259.632,57.735h-7.899c-4.143,0-7.5-3.358-7.5-7.5c0-4.142,3.357-7.5,7.5-7.5h7.899
					c4.143,0,7.5,3.358,7.5,7.5C267.132,54.377,263.774,57.735,259.632,57.735z"/>
			</g>
			<g>
				<path style="fill:#4CCE87;" d="M196.44,69.489h-7.898c-4.143,0-7.5-3.358-7.5-7.5s3.357-7.5,7.5-7.5h7.898
					c4.143,0,7.5,3.358,7.5,7.5S200.583,69.489,196.44,69.489z"/>
			</g>
			<g>
				<path style="fill:#4CCE87;" d="M315.713,69.489h-7.898c-4.143,0-7.5-3.358-7.5-7.5s3.357-7.5,7.5-7.5h7.898
					c4.143,0,7.5,3.358,7.5,7.5S319.855,69.489,315.713,69.489z"/>
			</g>
			<g>
				<path style="fill:#4CCE87;" d="M282.538,84.376h-7.899c-4.143,0-7.5-3.358-7.5-7.5s3.357-7.5,7.5-7.5h7.899
					c4.143,0,7.5,3.358,7.5,7.5S286.681,84.376,282.538,84.376z"/>
			</g>
			<g>
				<path style="fill:#4CCE87;" d="M232.775,84.376h-7.898c-4.143,0-7.5-3.358-7.5-7.5s3.357-7.5,7.5-7.5h7.898
					c4.143,0,7.5,3.358,7.5,7.5S236.918,84.376,232.775,84.376z"/>
			</g>
			<path style="fill:#4CCE87;" d="M359.947,81.931v-8.735c0-0.474-0.02-0.943-0.036-1.414c-1.37-1.476-3.32-2.405-5.493-2.405
				h-7.898c-4.142,0-7.5,3.358-7.5,7.5s3.358,7.5,7.5,7.5h7.898C356.61,84.376,358.576,83.43,359.947,81.931z"/>
			<path style="fill:#4CCE87;" d="M164.845,69.376h-7.898c-1.847,0-3.534,0.67-4.841,1.776c-0.034,0.677-0.053,1.358-0.053,2.043
				v9.357c1.314,1.134,3.021,1.824,4.894,1.824h7.898c4.143,0,7.5-3.358,7.5-7.5S168.987,69.376,164.845,69.376z"/>
		</g>
	</g>
</g>
<g>
</g>
<g>
</g>
<g>
</g>
<g>
</g>
<g>
</g>
<g>
</g>
<g>
</g>
<g>
</g>
<g>
</g>
<g>
</g>
<g>
</g>
<g>
</g>
<g>
</g>
<g>
</g>
<g>
</g>
</svg>
