<?xml version="1.0" encoding="iso-8859-1"?>
<!-- Generator: Adobe Illustrator 19.0.0, SVG Export Plug-In . SVG Version: 6.00 Build 0)  -->
<svg version="1.1" id="Layer_1" xmlns="http://www.w3.org/2000/svg" xmlns:xlink="http://www.w3.org/1999/xlink" x="0px" y="0px"
	 viewBox="0 0 512 512" style="enable-background:new 0 0 512 512;" xml:space="preserve">
<g>
	<g>
		<g>
			<g>
				<g>
					<g>
						<path style="fill:#FFCB00;" d="M230.762,170.5c-4.142,0-7.5-3.358-7.5-7.5V78.054c0-4.142,3.358-7.5,7.5-7.5
							s7.5,3.358,7.5,7.5V163C238.262,167.142,234.904,170.5,230.762,170.5z"/>
					</g>
					<g>
						<path style="fill:#FFCB00;" d="M285.136,180.5c-4.142,0-7.5-3.358-7.5-7.5V78.054c0-4.142,3.358-7.5,7.5-7.5
							c4.142,0,7.5,3.358,7.5,7.5V173C292.636,177.142,289.278,180.5,285.136,180.5z"/>
					</g>
					<g>
						<path style="fill:#FFCB00;" d="M258.071,149.5c-4.142,0-7.5-3.358-7.5-7.5V51.578c0-4.142,3.358-7.5,7.5-7.5
							c4.142,0,7.5,3.358,7.5,7.5V142C265.571,146.142,262.213,149.5,258.071,149.5z"/>
					</g>
				</g>
				<g>
					<path style="fill:#FFCB00;" d="M258.072,170.68c-0.785,0-1.571-0.185-2.287-0.557c-14.971-7.753-24.271-23.106-24.271-40.063
						c0-16.961,9.3-32.312,24.271-40.065c0.716-0.371,1.501-0.557,2.286-0.557c0.787,0,1.571,0.185,2.289,0.557
						c14.968,7.754,24.267,23.104,24.267,40.065c0,16.959-9.299,32.311-24.267,40.063
						C259.642,170.495,258.857,170.68,258.072,170.68z"/>
				</g>
				<g style="opacity:0.1;">
					<path d="M247.887,130.06c0-14.6,6.904-27.993,18.371-36.388c-1.854-1.358-3.815-2.598-5.898-3.677
						c-0.718-0.371-1.503-0.557-2.289-0.557c-0.784,0-1.57,0.185-2.286,0.557c-14.971,7.754-24.271,23.104-24.271,40.065
						c0,16.957,9.3,32.311,24.271,40.063c0.716,0.372,1.501,0.557,2.287,0.557c0.786,0,1.57-0.185,2.288-0.557
						c2.083-1.079,4.044-2.319,5.898-3.677C254.791,158.051,247.887,144.656,247.887,130.06z"/>
				</g>
				<g>
					<g>
						<path style="fill:#F6B245;" d="M254.316,200.489c-0.556,0.559-1.239,0.989-2.008,1.239
							c-16.018,5.202-33.346,0.985-45.225-11.01c-11.881-11.989-16.058-29.481-10.904-45.65c0.246-0.775,0.671-1.466,1.227-2.026
							c0.552-0.56,1.239-0.988,2.008-1.237c16.015-5.204,33.343-0.985,45.223,11.006c11.88,11.993,16.059,29.485,10.904,45.653
							C255.295,199.237,254.871,199.93,254.316,200.489z"/>
					</g>
					<g style="opacity:0.1;">
						<path d="M229.075,190.719c-11.881-11.989-16.058-29.481-10.904-45.65c0.246-0.775,0.671-1.466,1.228-2.026
							c0.552-0.56,1.239-0.988,2.008-1.237c0.909-0.295,1.823-0.551,2.739-0.786c-7.983-2.057-16.527-1.879-24.73,0.786
							c-0.769,0.249-1.456,0.678-2.008,1.237c-0.556,0.561-0.982,1.252-1.227,2.026c-5.154,16.169-0.977,33.661,10.904,45.65
							c11.205,11.314,27.257,15.699,42.485,11.796C241.966,200.555,234.87,196.57,229.075,190.719z"/>
					</g>
					<g>
						<path style="fill:#F6B245;" d="M261.828,200.489c-0.554-0.56-0.98-1.25-1.228-2.025c-5.154-16.168-0.975-33.66,10.904-45.653
							c11.881-11.991,29.21-16.21,45.223-11.006c0.769,0.249,1.454,0.678,2.008,1.237c0.555,0.561,0.98,1.252,1.229,2.028
							c5.151,16.167,0.975,33.659-10.905,45.65c-11.879,11.993-29.209,16.21-45.225,11.008
							C263.065,201.479,262.382,201.051,261.828,200.489z"/>
					</g>
				</g>
				<g>
					<g>
						<path style="fill:#FFCB00;" d="M254.316,252.738c-0.556,0.56-1.239,0.989-2.008,1.24
							c-16.018,5.201-33.346,0.984-45.225-11.009c-11.881-11.991-16.058-29.483-10.904-45.65c0.246-0.776,0.671-1.468,1.227-2.028
							c0.552-0.56,1.239-0.988,2.008-1.237c16.015-5.204,33.343-0.986,45.223,11.006c11.88,11.993,16.059,29.485,10.904,45.653
							C255.295,251.488,254.871,252.179,254.316,252.738z"/>
					</g>
					<g style="opacity:0.1;">
						<path d="M229.075,242.97c-11.881-11.991-16.058-29.483-10.904-45.65c0.246-0.776,0.671-1.468,1.228-2.028
							c0.552-0.56,1.239-0.988,2.008-1.237c0.909-0.295,1.824-0.551,2.74-0.786c-7.983-2.058-16.527-1.879-24.73,0.786
							c-0.769,0.249-1.456,0.678-2.008,1.237c-0.556,0.561-0.982,1.252-1.227,2.028c-5.154,16.167-0.977,33.659,10.904,45.65
							c11.205,11.313,27.258,15.697,42.486,11.794C241.966,252.805,234.87,248.821,229.075,242.97z"/>
					</g>
					<g>
						<path style="fill:#FFCB00;" d="M261.828,252.738c-0.554-0.56-0.98-1.25-1.228-2.025c-5.154-16.168-0.975-33.66,10.904-45.653
							c11.881-11.992,29.21-16.21,45.223-11.006c0.769,0.249,1.454,0.678,2.008,1.237c0.555,0.561,0.98,1.252,1.229,2.028
							c5.151,16.167,0.975,33.659-10.905,45.652c-11.879,11.991-29.209,16.208-45.225,11.007
							C263.065,253.727,262.382,253.301,261.828,252.738z"/>
					</g>
				</g>
				<g>
					<g>
						<path style="fill:#F6B245;" d="M254.316,304.339c-0.556,0.561-1.239,0.989-2.008,1.237
							c-16.018,5.204-33.346,0.986-45.225-11.007c-11.881-11.992-16.058-29.484-10.904-45.651c0.246-0.775,0.671-1.466,1.227-2.025
							c0.552-0.561,1.239-0.991,2.008-1.238c16.015-5.203,33.343-0.987,45.223,11.005c11.88,11.993,16.059,29.486,10.904,45.653
							C255.295,303.088,254.871,303.778,254.316,304.339z"/>
					</g>
					<g style="opacity:0.1;">
						<path d="M229.075,294.569c-11.881-11.992-16.058-29.484-10.904-45.651c0.246-0.775,0.671-1.466,1.228-2.025
							c0.552-0.561,1.239-0.991,2.008-1.238c0.909-0.295,1.824-0.551,2.74-0.786c-7.984-2.057-16.528-1.879-24.731,0.786
							c-0.769,0.247-1.456,0.677-2.008,1.238c-0.556,0.56-0.982,1.25-1.227,2.025c-5.154,16.167-0.977,33.659,10.904,45.651
							c11.205,11.312,27.256,15.698,42.483,11.793C241.964,304.404,234.869,300.419,229.075,294.569z"/>
					</g>
					<g>
						<path style="fill:#F6B245;" d="M261.828,304.339c-0.554-0.561-0.98-1.25-1.228-2.026c-5.154-16.167-0.975-33.66,10.904-45.652
							c11.881-11.993,29.21-16.209,45.223-11.006c0.769,0.247,1.454,0.677,2.008,1.238c0.555,0.56,0.98,1.25,1.229,2.025
							c5.151,16.167,0.975,33.659-10.905,45.654c-11.879,11.992-29.209,16.208-45.225,11.004
							C263.065,305.328,262.382,304.9,261.828,304.339z"/>
					</g>
				</g>
				<g>
					<g>
						<path style="fill:#FFCB00;" d="M254.316,356.818c-0.556,0.56-1.239,0.989-2.008,1.237
							c-16.018,5.204-33.346,0.986-45.225-11.007c-11.881-11.992-16.058-29.484-10.904-45.651c0.246-0.776,0.671-1.467,1.227-2.026
							c0.552-0.561,1.239-0.99,2.008-1.238c16.015-5.203,33.343-0.986,45.223,11.006c11.88,11.992,16.059,29.485,10.904,45.652
							C255.295,355.567,254.871,356.258,254.316,356.818z"/>
					</g>
					<g style="opacity:0.1;">
						<path d="M229.075,347.049c-11.881-11.992-16.058-29.484-10.904-45.651c0.246-0.776,0.671-1.467,1.228-2.026
							c0.552-0.561,1.239-0.99,2.008-1.238c0.909-0.295,1.823-0.551,2.74-0.786c-7.984-2.057-16.527-1.879-24.73,0.786
							c-0.769,0.248-1.456,0.678-2.008,1.238c-0.556,0.56-0.982,1.25-1.227,2.026c-5.154,16.167-0.977,33.659,10.904,45.651
							c11.205,11.312,27.256,15.698,42.483,11.793C241.964,356.883,234.869,352.899,229.075,347.049z"/>
					</g>
					<g>
						<path style="fill:#FFCB00;" d="M261.828,356.818c-0.554-0.561-0.98-1.25-1.228-2.027c-5.154-16.167-0.975-33.66,10.904-45.651
							c11.881-11.993,29.21-16.21,45.223-11.006c0.769,0.247,1.454,0.677,2.008,1.237c0.555,0.56,0.98,1.25,1.229,2.026
							c5.151,16.167,0.975,33.659-10.905,45.653c-11.879,11.992-29.209,16.209-45.225,11.005
							C263.065,357.808,262.382,357.379,261.828,356.818z"/>
					</g>
				</g>
			</g>
			<g>
				<g>
					<g>
						<path style="fill:#FFCB00;" d="M388.845,232.5c-4.142,0-7.5-3.358-7.5-7.5v-84.338c0-4.142,3.358-7.5,7.5-7.5
							s7.5,3.358,7.5,7.5V225C396.345,229.142,392.987,232.5,388.845,232.5z"/>
					</g>
					<g>
						<path style="fill:#FFCB00;" d="M443.219,232.5c-4.142,0-7.5-3.358-7.5-7.5v-84.338c0-4.142,3.358-7.5,7.5-7.5
							c4.142,0,7.5,3.358,7.5,7.5V225C450.719,229.142,447.361,232.5,443.219,232.5z"/>
					</g>
					<g>
						<path style="fill:#FFCB00;" d="M416.155,181.968c-4.142,0-7.5-3.358-7.5-7.5v-59.89c0-4.142,3.358-7.5,7.5-7.5
							c4.142,0,7.5,3.358,7.5,7.5v59.89C423.655,178.61,420.297,181.968,416.155,181.968z"/>
					</g>
				</g>
				<g>
					<path style="fill:#FFCB00;" d="M416.033,233.288c-0.785,0-1.571-0.185-2.287-0.557c-14.971-7.752-24.271-23.105-24.271-40.063
						c0-16.96,9.3-32.312,24.271-40.065c0.716-0.371,1.501-0.557,2.286-0.557c0.787,0,1.571,0.186,2.289,0.557
						c14.968,7.754,24.268,23.105,24.268,40.065c0,16.959-9.299,32.312-24.268,40.063
						C417.603,233.104,416.819,233.288,416.033,233.288z"/>
				</g>
				<g style="opacity:0.1;">
					<path d="M405.505,192.668c0-14.673,6.971-28.132,18.543-36.519c-1.803-1.307-3.708-2.501-5.727-3.546
						c-0.718-0.371-1.503-0.557-2.289-0.557c-0.784,0-1.57,0.186-2.286,0.557c-14.971,7.754-24.271,23.105-24.271,40.065
						c0,16.958,9.3,32.312,24.271,40.063c0.716,0.372,1.501,0.557,2.287,0.557c0.786,0,1.57-0.185,2.288-0.557
						c2.018-1.045,3.924-2.239,5.727-3.546C412.476,220.8,405.505,207.339,405.505,192.668z"/>
				</g>
				<g>
					<g>
						<path style="fill:#F6B245;" d="M412.278,263.098c-0.556,0.561-1.239,0.989-2.008,1.239
							c-16.018,5.203-33.346,0.985-45.225-11.009c-11.881-11.99-16.058-29.482-10.904-45.651c0.245-0.775,0.671-1.466,1.227-2.025
							c0.552-0.56,1.239-0.988,2.008-1.237c16.015-5.204,33.343-0.985,45.223,11.006c11.88,11.993,16.06,29.485,10.904,45.652
							C413.257,261.847,412.832,262.538,412.278,263.098z"/>
					</g>
					<g style="opacity:0.1;">
						<path d="M381.075,253.328c-11.881-11.99-16.058-29.482-10.904-45.651c0.245-0.775,0.671-1.466,1.227-2.025
							c0.552-0.56,1.239-0.988,2.008-1.237c1.895-0.616,3.809-1.089,5.729-1.444c-7.11-1.315-14.565-0.893-21.758,1.444
							c-0.769,0.249-1.456,0.678-2.008,1.237c-0.556,0.56-0.982,1.251-1.227,2.025c-5.154,16.169-0.977,33.661,10.904,45.651
							c10.474,10.575,25.183,15.095,39.496,12.452C395.82,264.168,387.619,259.935,381.075,253.328z"/>
					</g>
					<g>
						<path style="fill:#F6B245;" d="M419.789,263.098c-0.554-0.56-0.98-1.25-1.228-2.025c-5.154-16.167-0.975-33.659,10.904-45.652
							c11.881-11.991,29.209-16.21,45.223-11.006c0.769,0.249,1.454,0.678,2.008,1.237c0.555,0.56,0.98,1.251,1.229,2.027
							c5.151,16.167,0.975,33.659-10.905,45.65c-11.879,11.993-29.21,16.211-45.226,11.008
							C421.027,264.087,420.343,263.659,419.789,263.098z"/>
					</g>
				</g>
				<g>
					<g>
						<path style="fill:#FFCB00;" d="M412.278,315.347c-0.556,0.56-1.239,0.989-2.008,1.241
							c-16.018,5.201-33.346,0.983-45.225-11.01c-11.881-11.991-16.058-29.483-10.904-45.65c0.245-0.776,0.671-1.468,1.227-2.027
							c0.552-0.56,1.239-0.988,2.008-1.237c16.015-5.204,33.343-0.987,45.223,11.006c11.88,11.993,16.06,29.485,10.904,45.652
							C413.257,314.097,412.832,314.787,412.278,315.347z"/>
					</g>
					<g style="opacity:0.1;">
						<path d="M381.075,305.578c-11.881-11.991-16.058-29.483-10.904-45.65c0.245-0.776,0.671-1.468,1.227-2.027
							c0.552-0.56,1.239-0.988,2.008-1.237c1.895-0.616,3.81-1.089,5.73-1.444c-7.11-1.314-14.566-0.893-21.759,1.444
							c-0.769,0.249-1.456,0.678-2.008,1.237c-0.556,0.56-0.982,1.251-1.227,2.027c-5.154,16.167-0.977,33.659,10.904,45.65
							c10.474,10.575,25.184,15.094,39.498,12.452C395.821,316.418,387.619,312.185,381.075,305.578z"/>
					</g>
					<g>
						<path style="fill:#FFCB00;" d="M419.789,315.347c-0.554-0.56-0.98-1.25-1.228-2.025c-5.154-16.167-0.975-33.659,10.904-45.652
							c11.881-11.993,29.209-16.21,45.223-11.006c0.769,0.249,1.454,0.678,2.008,1.237c0.555,0.56,0.98,1.251,1.229,2.027
							c5.151,16.167,0.975,33.659-10.905,45.652c-11.879,11.991-29.21,16.209-45.226,11.008
							C421.027,316.336,420.343,315.909,419.789,315.347z"/>
					</g>
				</g>
				<g>
					<g>
						<path style="fill:#F6B245;" d="M412.278,366.947c-0.556,0.561-1.239,0.989-2.008,1.238
							c-16.018,5.203-33.346,0.986-45.225-11.007c-11.881-11.993-16.058-29.485-10.904-45.651c0.245-0.776,0.671-1.467,1.227-2.026
							c0.552-0.561,1.239-0.99,2.008-1.238c16.015-5.203,33.343-0.986,45.223,11.005c11.88,11.993,16.06,29.486,10.904,45.653
							C413.257,365.697,412.832,366.388,412.278,366.947z"/>
					</g>
					<g style="opacity:0.1;">
						<path d="M381.075,357.179c-11.881-11.993-16.058-29.485-10.904-45.651c0.245-0.776,0.671-1.467,1.227-2.026
							c0.552-0.561,1.239-0.99,2.008-1.238c1.895-0.616,3.809-1.089,5.729-1.443c-7.11-1.315-14.565-0.893-21.759,1.443
							c-0.769,0.248-1.456,0.678-2.008,1.238c-0.556,0.559-0.982,1.25-1.227,2.026c-5.154,16.166-0.977,33.658,10.904,45.651
							c10.473,10.574,25.182,15.093,39.495,12.451C395.819,368.017,387.618,363.785,381.075,357.179z"/>
					</g>
					<g>
						<path style="fill:#F6B245;" d="M419.789,366.947c-0.554-0.56-0.98-1.25-1.228-2.026c-5.154-16.167-0.975-33.66,10.904-45.651
							c11.881-11.993,29.209-16.21,45.223-11.006c0.769,0.247,1.454,0.677,2.008,1.237c0.555,0.559,0.98,1.25,1.229,2.026
							c5.151,16.166,0.975,33.658-10.905,45.653c-11.879,11.992-29.21,16.208-45.226,11.005
							C421.027,367.936,420.343,367.509,419.789,366.947z"/>
					</g>
				</g>
			</g>
			<g>
				<g>
					<g>
						<path style="fill:#FFCB00;" d="M68.781,232.5c-4.142,0-7.5-3.358-7.5-7.5v-84.338c0-4.142,3.358-7.5,7.5-7.5
							c4.142,0,7.5,3.358,7.5,7.5V225C76.281,229.142,72.923,232.5,68.781,232.5z"/>
					</g>
					<g>
						<path style="fill:#FFCB00;" d="M123.155,232.5c-4.142,0-7.5-3.358-7.5-7.5v-84.338c0-4.142,3.358-7.5,7.5-7.5
							s7.5,3.358,7.5,7.5V225C130.655,229.142,127.297,232.5,123.155,232.5z"/>
					</g>
					<g>
						<path style="fill:#FFCB00;" d="M96.091,181.968c-4.142,0-7.5-3.358-7.5-7.5v-59.89c0-4.142,3.358-7.5,7.5-7.5
							c4.142,0,7.5,3.358,7.5,7.5v59.89C103.591,178.61,100.233,181.968,96.091,181.968z"/>
					</g>
				</g>
				<g>
					<path style="fill:#FFCB00;" d="M95.969,233.288c-0.785,0-1.571-0.185-2.287-0.557c-14.971-7.752-24.271-23.105-24.271-40.063
						c0-16.96,9.3-32.312,24.271-40.065c0.716-0.371,1.502-0.557,2.286-0.557c0.787,0,1.571,0.186,2.289,0.557
						c14.968,7.754,24.268,23.105,24.268,40.065c0,16.959-9.299,32.312-24.268,40.063C97.539,233.104,96.754,233.288,95.969,233.288
						z"/>
				</g>
				<g style="opacity:0.1;">
					<path d="M85.887,192.668c0-14.577,6.884-27.951,18.32-36.349c-1.87-1.372-3.847-2.627-5.95-3.716
						c-0.718-0.371-1.502-0.557-2.289-0.557c-0.784,0-1.57,0.186-2.286,0.557c-14.971,7.754-24.271,23.105-24.271,40.065
						c0,16.958,9.3,32.312,24.271,40.063c0.716,0.372,1.502,0.557,2.287,0.557c0.786,0,1.57-0.185,2.288-0.557
						c2.103-1.089,4.081-2.343,5.95-3.716C92.771,220.619,85.887,207.243,85.887,192.668z"/>
				</g>
				<g>
					<g>
						<path style="fill:#F6B245;" d="M92.213,263.098c-0.556,0.561-1.239,0.989-2.008,1.239
							c-16.018,5.203-33.346,0.985-45.225-11.009c-11.881-11.99-16.058-29.482-10.904-45.651c0.245-0.775,0.671-1.466,1.228-2.025
							c0.552-0.56,1.239-0.988,2.008-1.237c16.015-5.204,33.343-0.985,45.223,11.006c11.88,11.993,16.06,29.485,10.904,45.652
							C93.192,261.847,92.768,262.538,92.213,263.098z"/>
					</g>
					<g style="opacity:0.1;">
						<path d="M66.37,253.328c-11.881-11.99-16.058-29.482-10.904-45.651c0.245-0.775,0.671-1.466,1.228-2.025
							c0.552-0.56,1.239-0.988,2.008-1.237c1.008-0.328,2.022-0.617,3.04-0.871c-7.896-1.975-16.329-1.761-24.429,0.871
							c-0.769,0.249-1.456,0.678-2.008,1.237c-0.556,0.56-0.982,1.251-1.228,2.025c-5.154,16.169-0.977,33.661,10.904,45.651
							c11.131,11.239,27.046,15.649,42.185,11.879C79.447,263.277,72.242,259.257,66.37,253.328z"/>
					</g>
					<g>
						<path style="fill:#F6B245;" d="M99.725,263.098c-0.554-0.56-0.98-1.25-1.228-2.025c-5.154-16.167-0.975-33.659,10.904-45.652
							c11.881-11.991,29.209-16.21,45.223-11.006c0.769,0.249,1.454,0.678,2.008,1.237c0.555,0.56,0.98,1.251,1.229,2.027
							c5.151,16.167,0.975,33.659-10.905,45.65c-11.879,11.993-29.209,16.211-45.225,11.008
							C100.962,264.087,100.279,263.659,99.725,263.098z"/>
					</g>
				</g>
				<g>
					<g>
						<path style="fill:#FFCB00;" d="M92.213,315.347c-0.556,0.56-1.239,0.989-2.008,1.241c-16.018,5.201-33.346,0.983-45.225-11.01
							c-11.881-11.991-16.058-29.483-10.904-45.65c0.245-0.776,0.671-1.468,1.228-2.027c0.552-0.56,1.239-0.988,2.008-1.237
							c16.015-5.204,33.343-0.987,45.223,11.006c11.88,11.993,16.06,29.485,10.904,45.652
							C93.192,314.097,92.768,314.787,92.213,315.347z"/>
					</g>
					<g style="opacity:0.1;">
						<path d="M66.37,305.578c-11.881-11.991-16.058-29.483-10.904-45.65c0.245-0.776,0.671-1.468,1.228-2.027
							c0.552-0.56,1.239-0.988,2.008-1.237c1.009-0.328,2.023-0.618,3.041-0.871c-7.897-1.975-16.331-1.761-24.43,0.871
							c-0.769,0.249-1.456,0.678-2.008,1.237c-0.556,0.56-0.982,1.251-1.228,2.027c-5.154,16.167-0.977,33.659,10.904,45.65
							c11.131,11.239,27.048,15.648,42.187,11.879C79.449,315.527,72.243,311.507,66.37,305.578z"/>
					</g>
					<g>
						<path style="fill:#FFCB00;" d="M99.725,315.347c-0.554-0.56-0.98-1.25-1.228-2.025c-5.154-16.167-0.975-33.659,10.904-45.652
							c11.881-11.993,29.209-16.21,45.223-11.006c0.769,0.249,1.454,0.678,2.008,1.237c0.555,0.56,0.98,1.251,1.229,2.027
							c5.151,16.167,0.975,33.659-10.905,45.652c-11.879,11.991-29.209,16.209-45.225,11.008
							C100.962,316.336,100.279,315.909,99.725,315.347z"/>
					</g>
				</g>
				<g>
					<g>
						<path style="fill:#F6B245;" d="M92.213,366.947c-0.556,0.561-1.239,0.989-2.008,1.238
							c-16.018,5.203-33.346,0.986-45.225-11.007c-11.881-11.993-16.058-29.485-10.904-45.651c0.245-0.776,0.671-1.467,1.228-2.026
							c0.552-0.561,1.239-0.99,2.008-1.238c16.015-5.203,33.343-0.986,45.223,11.005c11.88,11.993,16.06,29.486,10.904,45.653
							C93.192,365.697,92.768,366.388,92.213,366.947z"/>
					</g>
					<g style="opacity:0.1;">
						<path d="M61.075,357.179c-11.881-11.993-16.058-29.485-10.904-45.651c0.245-0.776,0.671-1.467,1.228-2.026
							c0.552-0.561,1.239-0.99,2.008-1.238c1.884-0.612,3.787-1.083,5.697-1.437c-7.12-1.322-14.587-0.904-21.791,1.437
							c-0.769,0.248-1.456,0.678-2.008,1.238c-0.556,0.559-0.982,1.25-1.228,2.026c-5.154,16.166-0.977,33.658,10.904,45.651
							c10.481,10.582,25.204,15.099,39.526,12.444C75.798,368.005,67.61,363.777,61.075,357.179z"/>
					</g>
					<g>
						<path style="fill:#F6B245;" d="M99.725,366.947c-0.554-0.56-0.98-1.25-1.228-2.026c-5.154-16.167-0.975-33.66,10.904-45.651
							c11.881-11.993,29.209-16.21,45.223-11.006c0.769,0.247,1.454,0.677,2.008,1.237c0.555,0.559,0.98,1.25,1.229,2.026
							c5.151,16.166,0.975,33.658-10.905,45.653c-11.879,11.992-29.209,16.208-45.225,11.005
							C100.962,367.936,100.279,367.509,99.725,366.947z"/>
					</g>
				</g>
			</g>
		</g>
		<g>
			<g>
				<g>
					<path style="fill:#FFCB00;" d="M78.619,467.922H52.35c-4.142,0-7.5-3.358-7.5-7.5c0-4.142,3.358-7.5,7.5-7.5h26.27
						c4.142,0,7.5,3.358,7.5,7.5C86.119,464.564,82.761,467.922,78.619,467.922z"/>
				</g>
			</g>
			<g>
				<g>
					<path style="fill:#F6B245;" d="M142.124,467.922h-26.27c-4.142,0-7.5-3.358-7.5-7.5c0-4.142,3.358-7.5,7.5-7.5h26.27
						c4.142,0,7.5,3.358,7.5,7.5C149.624,464.564,146.267,467.922,142.124,467.922z"/>
				</g>
			</g>
			<g>
				<g>
					<path style="fill:#FFCB00;" d="M205.629,467.922H179.36c-4.142,0-7.5-3.358-7.5-7.5c0-4.142,3.358-7.5,7.5-7.5h26.269
						c4.142,0,7.5,3.358,7.5,7.5C213.129,464.564,209.771,467.922,205.629,467.922z"/>
				</g>
			</g>
			<g>
				<g>
					<path style="fill:#F6B245;" d="M269.134,467.922h-26.269c-4.142,0-7.5-3.358-7.5-7.5c0-4.142,3.358-7.5,7.5-7.5h26.269
						c4.142,0,7.5,3.358,7.5,7.5C276.634,464.564,273.276,467.922,269.134,467.922z"/>
				</g>
			</g>
			<g>
				<g>
					<path style="fill:#FFCB00;" d="M332.64,467.922h-26.268c-4.142,0-7.5-3.358-7.5-7.5c0-4.142,3.358-7.5,7.5-7.5h26.268
						c4.142,0,7.5,3.358,7.5,7.5C340.14,464.564,336.782,467.922,332.64,467.922z"/>
				</g>
			</g>
			<g>
				<g>
					<path style="fill:#F6B245;" d="M396.145,467.922h-26.27c-4.142,0-7.5-3.358-7.5-7.5c0-4.142,3.358-7.5,7.5-7.5h26.27
						c4.142,0,7.5,3.358,7.5,7.5C403.645,464.564,400.288,467.922,396.145,467.922z"/>
				</g>
			</g>
			<g>
				<g>
					<path style="fill:#FFCB00;" d="M459.65,467.922h-26.27c-4.142,0-7.5-3.358-7.5-7.5c0-4.142,3.358-7.5,7.5-7.5h26.27
						c4.142,0,7.5,3.358,7.5,7.5C467.15,464.564,463.792,467.922,459.65,467.922z"/>
				</g>
			</g>
		</g>
	</g>
	<path style="fill:#F6B142;" d="M492.324,426.048v-34.954c0-4.142-3.358-7.5-7.5-7.5c-4.142,0-7.5,3.358-7.5,7.5v34.954H492.324z"/>
	<path style="fill:#F6B142;" d="M460.605,426.048v-17.656c0-4.142-3.358-7.5-7.5-7.5c-4.142,0-7.5,3.358-7.5,7.5v17.656H460.605z"/>
	<path style="fill:#F6B142;" d="M423.532,426.048V210c0-4.142-3.358-7.5-7.5-7.5c-4.142,0-7.5,3.358-7.5,7.5v216.048H423.532z"/>
	<path style="fill:#F6B142;" d="M321.689,426.048v-27.855c0-4.142-3.358-7.5-7.5-7.5c-4.142,0-7.5,3.358-7.5,7.5v27.855H321.689z"/>
	<path style="fill:#F6B142;" d="M265.571,426.048V148c0-4.142-3.358-7.5-7.5-7.5c-4.142,0-7.5,3.358-7.5,7.5v278.048H265.571z"/>
	<path style="fill:#F6B142;" d="M197.082,426.048v-17.656c0-4.142-3.358-7.5-7.5-7.5s-7.5,3.358-7.5,7.5v17.656H197.082z"/>
	<path style="fill:#F6B142;" d="M165.364,426.048v-31.214c0-4.142-3.358-7.5-7.5-7.5c-4.142,0-7.5,3.358-7.5,7.5v31.214H165.364z"/>
	<path style="fill:#F6B142;" d="M103.468,426.048V210c0-4.142-3.358-7.5-7.5-7.5c-4.142,0-7.5,3.358-7.5,7.5v216.048H103.468z"/>
	<path style="fill:#F6B142;" d="M43.738,426.048v-17.656c0-4.142-3.358-7.5-7.5-7.5s-7.5,3.358-7.5,7.5v17.656H43.738z"/>
	<g>
		<g>
			<path style="fill:#FFCB00;" d="M504.5,436.048H7.5c-4.142,0-7.5-3.358-7.5-7.5c0-4.142,3.358-7.5,7.5-7.5h497
				c4.142,0,7.5,3.358,7.5,7.5C512,432.69,508.642,436.048,504.5,436.048z"/>
		</g>
	</g>
</g>
<g>
</g>
<g>
</g>
<g>
</g>
<g>
</g>
<g>
</g>
<g>
</g>
<g>
</g>
<g>
</g>
<g>
</g>
<g>
</g>
<g>
</g>
<g>
</g>
<g>
</g>
<g>
</g>
<g>
</g>
</svg>
